<?xml version="1.0" encoding="UTF-8"?>
<svg width="202px" height="244px" viewBox="0 0 202 244" version="1.1" xmlns="http://www.w3.org/2000/svg" xmlns:xlink="http://www.w3.org/1999/xlink">
    <title>Group 28</title>
    <g id="Page-1" stroke="none" stroke-width="1" fill="none" fill-rule="evenodd">
        <g id="Group-28">
            <path d="M176.625067,217.881933 C176.111733,219.619267 175.5304,221.589267 174.199067,222.9086 C173.139067,223.9586 171.679067,224.537267 170.019067,225.133933 C147.7464,233.1326 124.2444,237.409267 100.167067,237.845267 C76.0917333,238.279933 52.4490667,234.859267 29.9010667,227.673267 C28.8710667,227.3446 27.5897333,226.935933 26.6897333,226.1566 C25.5170667,225.141267 24.9657333,223.5566 24.4150667,221.741933 C6.6124,163.0926 0.9244,108.493267 7.50973333,59.4619333 C7.94906667,56.1919333 8.4644,53.0346 9.92906667,50.3546 C11.7610667,47.0052667 15.0164,44.5379333 18.2617333,42.3719333 C26.9217333,36.5919333 36.5117333,31.9346 46.4730667,28.6132667 L46.9470667,29.9179333 C46.3844,30.3119333 45.8197333,30.7046 45.2677333,31.1079333 C44.6984,31.5232667 43.9177333,32.0926 43.5177333,32.9639333 C42.8697333,34.3772667 43.4824,35.9732667 44.3764,36.9286 C45.2524,37.8639333 46.4297333,38.3999333 47.5604,38.8692667 C63.5504,45.5106 81.4250667,46.6152667 98.3630667,47.1772667 C103.833067,47.3586 109.5864,47.5112667 115.513733,47.5112667 C127.9824,47.5112667 141.2184,46.8339333 154.185733,44.3152667 C156.903067,43.7879333 159.7584,43.1419333 162.183067,41.5626 C162.729733,41.2059333 163.383067,40.6932667 163.579067,39.8812667 C163.7884,39.0112667 163.359733,38.1892667 163.103733,37.6986 C162.3024,36.1619333 161.471067,34.6312667 160.625733,33.1086 L161.3344,31.1572667 C170.0004,34.7732667 178.2744,39.2812667 186.017067,44.6259333 C188.623067,46.4252667 191.581733,48.5846 193.719067,51.4406 C197.5764,56.5966 198.3864,63.5106 198.8424,69.5872667 C202.683733,120.733933 190.4344,171.087267 176.625067,217.881933 M47.4584,31.3186 C47.5110667,31.4566 47.6030667,31.5766 47.7257333,31.6599333 C47.9744,31.8279333 54.1557333,35.8079333 84.6757333,38.9292667 C93.8184,39.8646 103.479733,40.2599333 112.743733,40.2599333 C134.569067,40.2599333 154.1764,38.0632667 159.515067,35.5512667 C159.687067,35.4699333 159.8204,35.3239333 159.885733,35.1452667 L159.9724,34.9072667 C160.601067,36.0566 161.221733,37.2092667 161.8244,38.3652667 C162.0444,38.7866 162.253067,39.2252667 162.1764,39.5432667 C162.099733,39.8612667 161.719067,40.1432667 161.395733,40.3532667 C159.189067,41.7906 156.4884,42.3992667 153.911067,42.8999333 C134.9264,46.5866 115.309067,46.2966 98.4110667,45.7352667 C81.6057333,45.1779333 63.8797333,44.0852667 48.1137333,37.5372667 C47.0870667,37.1112667 46.1104,36.6686 45.4297333,35.9426 C44.8830667,35.3586 44.4617333,34.3659333 44.8290667,33.5652667 C45.0537333,33.0759333 45.5457333,32.6906 46.1184,32.2732667 C46.5597333,31.9512667 47.0097333,31.6359333 47.4584,31.3186 M58.9530667,20.7799333 C70.6850667,23.3712667 86.3404,25.1606 103.035067,25.8179333 C107.623067,25.9992667 112.137733,26.0886 116.5224,26.0886 C128.0924,26.0886 138.747067,25.4666 147.375733,24.2619333 C156.371733,23.0066 161.325067,21.3812667 163.937067,19.7712667 L158.633733,34.3659333 C150.6144,37.8219333 114.9364,40.5746 84.8224,37.4946 C61.5370667,35.1126 51.1837333,31.9986 48.7224,30.5799333 L43.1577333,15.2539333 C45.7297333,16.9972667 50.4957333,18.9112667 58.9530667,20.7799333 M42.0810667,12.2879333 L41.9344,11.8852667 C41.8984,11.7399333 41.8757333,11.5952667 41.8807731,11.4506 C41.9997333,8.46793333 51.2317333,6.1226 59.8337333,4.92193333 C68.3984,3.7266 78.9797333,3.10926667 90.4804,3.10926667 C94.8470667,3.10926667 99.3470667,3.19793333 103.9184,3.37793333 C120.529733,4.0326 136.0944,5.8106 147.745733,8.38393333 C156.225733,10.2572667 165.245733,13.3219333 165.129533,16.3046 C165.123067,16.4412667 165.0924,16.5752667 165.049733,16.7086 L164.9824,16.8939333 C163.777067,19.5946 155.203067,21.7126 147.1764,22.8332667 C135.359067,24.4826 119.703733,25.0312667 103.091733,24.3772667 C86.4804,23.7232667 70.9157333,21.9452667 59.2644,19.3706 C51.5770667,17.6726 43.4464,14.9959333 42.0810667,12.2879333 M200.281067,69.4792667 C199.809067,63.2006 198.963733,56.0432667 194.8744,50.5766 C192.6064,47.5459333 189.5364,45.3039333 186.8364,43.4392667 C178.991733,38.0239333 170.609067,33.4592667 161.827733,29.8006 L166.423067,17.1532667 C166.433067,17.1252667 166.4384,17.0966 166.445067,17.0679333 C166.521067,16.8252667 166.5604,16.5892667 166.569733,16.3612667 C166.663733,13.9659333 163.5284,10.3939333 148.0564,6.97593333 C136.3244,4.38393333 120.669067,2.59393333 103.975067,1.9366 C87.2810667,1.2786 71.5337333,1.83193333 59.6337333,3.49326667 C43.9410667,5.68393333 40.5344,8.9986 40.4404,11.3939333 C40.4304,11.6492667 40.4597333,11.9192667 40.5344,12.1999333 C40.5410667,12.2519333 40.5524,12.3046 40.5710667,12.3566 L45.9744,27.2386 C35.9104,30.5772667 26.3570667,35.2352667 17.4604,41.1726 C14.0624,43.4406 10.6444,46.0392667 8.66373333,49.6626 C7.0804,52.5592667 6.53773333,55.8599333 6.07973333,59.2699333 C-0.532933333,108.507933 5.17106667,163.3126 23.0344,222.161267 C23.5104,223.729267 24.1624,225.875933 25.7450667,227.2466 C26.8690667,228.2206 28.3070667,228.6786 29.4630667,229.047267 C50.8784,235.8726 73.2684,239.325267 96.0850667,239.325267 C97.4517333,239.325267 98.8237333,239.3126 100.193733,239.287933 C124.4284,238.8486 148.085067,234.543267 170.5064,226.491267 C172.331067,225.8366 173.9444,225.191933 175.2144,223.933267 C176.809067,222.3526 177.473733,220.099933 178.0084,218.289933 C191.857067,171.3646 204.139733,120.857933 200.281067,69.4792667" id="Fill-881" fill="#FFFFFF"></path>
            <rect id="Rectangle" x="0" y="0" width="202" height="244"></rect>
        </g>
    </g>
</svg>