<?xml version="1.0" encoding="UTF-8"?>
<svg width="202px" height="244px" viewBox="0 0 202 244" version="1.1" xmlns="http://www.w3.org/2000/svg" xmlns:xlink="http://www.w3.org/1999/xlink">
    <title>Group 28</title>
    <g id="Page-1" stroke="none" stroke-width="1" fill="none" fill-rule="evenodd">
        <g id="Group-28">
            <g id="Group" transform="translate(86.695209, 37.548177)" fill="#FFFFFF">
                <path d="M53.0613913,0.907956319 C51.7827246,0.975289652 50.5033913,1.04128965 49.2247246,1.10862299 L15.826058,2.85262299 C14.072058,2.94462299 12.286058,3.04195632 10.638058,3.64995632 C10.406058,4.15328965 11.1147246,4.55128965 11.6593913,4.65328965 C14.1273913,5.11595632 16.6173913,5.45928965 19.118058,5.68328965 C23.4373913,6.06928965 27.780058,6.09662299 32.1167246,6.12328965 C37.714058,6.15795632 43.318058,6.19262299 48.9013913,5.79795632 C54.6033913,5.39462299 60.274058,4.54395632 65.844058,3.25528965 C67.548058,2.86128965 69.3207246,2.38528965 70.600058,1.19195632 C72.3653913,-0.454710348 69.1073913,0.0699563186 68.2767246,0.113289652 C66.530058,0.203956319 64.7833913,0.295956319 63.036058,0.387289652 C59.7113913,0.560622985 56.386058,0.733956319 53.0613913,0.907956319" id="Fill-875"></path>
                <path d="M81.078658,6.48742299 C82.5933246,5.91075632 84.1853246,5.28608965 85.786658,5.53408965 C86.8773246,5.70342299 87.8633246,6.26542299 88.8013246,6.84608965 C92.350658,9.04608965 95.6299913,11.6807563 98.5419913,14.6720897 C100.440658,16.6227563 102.289325,19.0160897 102.143325,21.7340897 C101.974658,24.8767563 99.2273246,27.2200897 96.5319913,28.8440897 C91.7479913,31.727423 86.4399913,33.6300897 81.088658,35.2300897 C61.4539913,41.101423 40.6759913,43.1187563 20.278658,41.1360897 C17.960658,40.9107563 15.6299913,40.6300897 13.4133246,39.9147563 C8.48399129,38.3227563 4.35199129,34.5487563 2.09732462,29.885423 C-0.157342048,25.221423 -0.564675381,19.739423 0.733324619,14.7240897 C0.992657952,13.723423 1.40465795,12.6347563 2.33932462,12.191423 C2.99599129,11.879423 3.76332462,11.9640897 4.48532462,12.0520897 C14.9293246,13.3240897 25.4673246,13.8147563 35.984658,13.5220897 C45.7799913,13.249423 55.580658,13.0740897 65.2233246,11.0967563 C70.620658,9.99008965 75.9299913,8.44942299 81.078658,6.48742299" id="Fill-877"></path>
            </g>
            <rect id="Rectangle" x="0" y="0" width="202" height="244"></rect>
        </g>
    </g>
</svg>