<?xml version="1.0" encoding="UTF-8"?>
<svg width="202px" height="244px" viewBox="0 0 202 244" version="1.1" xmlns="http://www.w3.org/2000/svg" xmlns:xlink="http://www.w3.org/1999/xlink">
    <title>Group 28</title>
    <g id="Page-1" stroke="none" stroke-width="1" fill="none" fill-rule="evenodd">
        <g id="Group-28">
            <path d="M195.030667,64.8669333 C194.639333,61.0389333 194.135333,57.3336 192.289333,54.0816 C190.283333,50.5489333 186.940667,48.0716 183.965333,46.0249333 C176.43,40.8449333 168.354667,36.4696 159.906,32.9776 L159.412667,34.3349333 C167.747333,37.7849333 175.712667,42.1029333 183.148,47.2142667 C185.991333,49.1689333 189.18,51.5276 191.034667,54.7942667 C192.742,57.8016 193.220667,61.3449333 193.595333,65.0136 C196.032667,88.8496 195.124667,113.5976 190.819333,140.670933 C187.178,163.5676 181.128667,187.786933 172.326,214.712933 C171.850667,216.166933 171.311333,217.816267 170.228667,218.978267 C169.156,220.130267 167.63,220.758933 165.892667,221.406267 C144.151333,229.496933 121.129333,233.676933 97.466,233.828267 C73.9266667,233.970933 50.96,230.134267 29.2153333,222.4016 C21.4953333,199.240267 15.9153333,175.1616 12.6273333,150.826933 C9.32333333,126.376267 8.32,101.5596 9.64466667,77.0676 C10.1566667,67.6016 11.2593333,56.8882667 17.9006667,49.5609333 C21.7473333,45.3169333 27.028,42.7129333 32.1073333,40.4082667 C38.6726667,37.4316 45.4206667,34.7149333 52.244,32.3016 L49.9293333,31.6042667 C43.6926667,33.8642667 37.5253333,36.3676 31.5113333,39.0956 C26.2946667,41.4616 20.864,44.1436 16.8313333,48.5929333 C9.87333333,56.2696 8.73,67.2756 8.20466667,76.9896 C6.87466667,101.572267 7.882,126.4796 11.1973333,151.020267 C14.5133333,175.560933 20.1526667,199.842933 27.958,223.190933 C28.0286667,223.4016 28.1906667,223.5676 28.3993333,223.6416 C49.9893333,231.3636 72.768,235.274933 96.1326667,235.274933 C96.5786667,235.274933 97.0286667,235.274933 97.4753333,235.270933 C121.308,235.118267 144.496,230.908267 166.396,222.7576 C168.238,222.072267 169.998,221.342267 171.284667,219.9616 C172.584,218.566267 173.201333,216.678267 173.697333,215.160267 C182.524,188.1616 188.59,163.870267 192.244,140.896933 C196.569333,113.698267 197.480667,88.8289333 195.030667,64.8669333" id="Fill-879" fill="#FFFFFF"></path>
            <rect id="Rectangle" x="0" y="0" width="202" height="244"></rect>
        </g>
    </g>
</svg>