<?xml version="1.0" encoding="UTF-8"?>
<svg width="202px" height="244px" viewBox="0 0 202 244" version="1.1" xmlns="http://www.w3.org/2000/svg" xmlns:xlink="http://www.w3.org/1999/xlink">
    <title>Group 28</title>
    <g id="Page-1" stroke="none" stroke-width="1" fill="none" fill-rule="evenodd">
        <g id="Group-28">
            <g id="Group-2" transform="translate(61.424867, 2.389373)" fill="#4BBE7D">
                <path d="M6.055,0.943760062 C16.347,0.0197600616 28.9416667,-0.266906605 42.5223333,0.267760062 C45.2223333,0.374426728 47.8816667,0.510426728 50.489,0.673093395 L97.0556667,18.8877601 L91.2423333,34.2944267 C79.1876667,36.5570934 55.1863333,38.0217601 32.3916667,36.5684267 L33.2636667,22.2770934 L6.055,0.943760062 Z" id="Fill-871"></path>
                <path d="M0,1.59416006 L0,1.59416006 C1.058,1.46016006 2.15,1.33282673 3.27266667,1.21549339 L28.442,21.9354934 L29.8326667,36.3921601 C27.6433333,36.2301601 25.47,36.0421601 23.324,35.8228267 C22.118,35.6988267 20.954,35.5741601 19.8233333,35.4481601 L17.7646667,20.9121601 L0,1.59416006 Z" id="Fill-873"></path>
            </g>
            <rect id="Rectangle" x="0" y="0" width="202" height="244"></rect>
        </g>
    </g>
</svg>