<?xml version="1.0" encoding="UTF-8"?>
<svg width="202px" height="244px" viewBox="0 0 202 244" version="1.1" xmlns="http://www.w3.org/2000/svg" xmlns:xlink="http://www.w3.org/1999/xlink">
    <title>Group 28</title>
    <g id="Page-1" stroke="none" stroke-width="1" fill="none" fill-rule="evenodd">
        <g id="Group-28">
            <g id="Group-3" transform="translate(41.160325, 2.389111)">
                <path d="M61.902875,22.7083552 C96.3342083,24.0643552 124.444875,20.1403552 124.688875,13.9443552 C124.754875,12.2556885 122.743542,10.5743552 119.090875,8.99235521 C122.743542,10.5743552 124.754875,12.2556885 124.688875,13.9443552 C124.680875,14.1376885 124.646208,14.3290219 124.584875,14.5183552 L118.047542,32.5096885 C110.636875,35.9970219 74.278875,38.9616885 43.588875,35.8230219 C12.898875,32.6836885 6.97020833,28.6730219 6.97020833,28.6730219 L0.182208333,9.97968854 C2.60354167,15.8416885 29.2262083,21.4216885 61.902875,22.7083552" id="Fill-867" fill="#142D73"></path>
                <path d="M0.113208333,9.78902188 L0.113208333,9.78902188 C0.105875,9.76635521 0.0992083333,9.74435521 0.0925416667,9.72102188 C0.0692083333,9.64102188 0.0512083333,9.56035521 0.0365416667,9.47968854 C0.029875,9.44235521 0.021875,9.40568854 0.0172083333,9.36768854 C0.0132083333,9.33502188 0.0105416667,9.30302188 0.007875,9.27102188 C0.001875,9.19168854 -0.002125,9.11235521 2.84217094e-14,9.03302188 C0.0305416667,8.27168854 0.483875,7.54368854 1.31654167,6.85702188 C1.435875,6.75768854 1.56120833,6.65968854 1.69654167,6.56168854 C1.86320833,6.44235521 2.04520833,6.32502188 2.23520833,6.20768854 C2.50054167,6.04435521 2.78720833,5.88368854 3.09720833,5.72502188 C3.361875,5.58968854 3.63920833,5.45568854 3.935875,5.32435521 C4.47054167,5.08702188 5.055875,4.85635521 5.689875,4.63235521 C6.323875,4.40835521 7.00654167,4.19168854 7.735875,3.98102188 C7.97920833,3.91102188 8.22720833,3.84168854 8.48054167,3.77368854 C9.24054167,3.56768854 10.045875,3.36968854 10.8952083,3.17902188 C11.1785417,3.11502188 11.465875,3.05302188 11.7585417,2.99102188 C12.343875,2.86702188 12.947875,2.74702188 13.5705417,2.62968854 C14.1932083,2.51235521 14.8345417,2.39902188 15.4925417,2.28902188 C16.809875,2.06902188 18.1972083,1.86302188 19.6512083,1.67235521 C21.103875,1.48168854 22.6232083,1.30568854 24.201875,1.14502188 C24.9912083,1.06502188 25.795875,0.989021876 26.6145417,0.916355209 C27.8432083,0.808355209 29.103875,0.709688542 30.3952083,0.619021876 C30.8252083,0.589021876 31.2592083,0.560355209 31.695875,0.532355209 C33.443875,0.421021876 35.243875,0.326355209 37.0905417,0.248355209 C37.5525417,0.229688542 38.0172083,0.211688542 38.4845417,0.193688542 C39.419875,0.160355209 40.3665417,0.130355209 41.323875,0.105021876 C42.2812083,0.0796885424 43.2492083,0.0583552091 44.2272083,0.0423552091 C45.205875,0.0256885424 46.1945417,0.0150218758 47.191875,0.00768854244 C48.189875,0.00102187577 49.1972083,-0.00164479089 50.2132083,0.00102187577 C52.2452083,0.00635520911 54.3125417,0.0303552091 56.409875,0.0750218758 C58.5072083,0.119021876 60.6345417,0.183688542 62.7865417,0.268355209 C63.8625417,0.310355209 64.931875,0.357688542 65.993875,0.409688542 C67.557875,0.485021876 69.1045417,0.571021876 70.6345417,0.665688542 C70.695875,0.669688542 70.7565417,0.673021876 70.817875,0.677021876 C72.343875,0.773021876 73.8532083,0.877688542 75.341875,0.991021876 C77.3685417,1.14568854 79.357875,1.31635521 81.305875,1.50235521 C82.7665417,1.64235521 84.203875,1.79035521 85.615875,1.94635521 C87.027875,2.10302188 88.413875,2.26768854 89.771875,2.43968854 C91.129875,2.61102188 92.459875,2.79035521 93.759875,2.97702188 C97.6605417,3.53635521 101.290542,4.16035521 104.590542,4.83368854 C108.001208,5.53035521 111.057208,6.28168854 113.697875,7.07302188 C114.179875,7.21768854 114.651208,7.36235521 115.105208,7.50968854 C116.283208,7.89035521 117.361208,8.28035521 118.339208,8.67702188 C118.597208,8.78168854 118.847875,8.88635521 119.091208,8.99235521 C122.743208,10.5743552 124.755208,12.2556885 124.688542,13.9436885 C124.444542,20.1403552 96.3345417,24.0643552 61.9032083,22.7083552 C29.2265417,21.4216885 2.603875,15.8416885 0.182541667,9.97968854 L0.182541667,9.97902188 C0.155875,9.91568854 0.133875,9.85235521 0.113208333,9.78902188" id="Fill-869" fill="#1A3C99"></path>
            </g>
            <rect id="Rectangle" x="0" y="0" width="202" height="244"></rect>
        </g>
    </g>
</svg>