<?xml version="1.0" encoding="UTF-8"?>
<svg width="202px" height="244px" viewBox="0 0 202 244" version="1.1" xmlns="http://www.w3.org/2000/svg" xmlns:xlink="http://www.w3.org/1999/xlink">
    <title>Group 28</title>
    <g id="Page-1" stroke="none" stroke-width="1" fill="none" fill-rule="evenodd">
        <g id="Group-28">
            <g id="Group-27" transform="translate(30.236467, 186.170444)">
                <path d="M27.2772667,4.49408934 C26.8792667,4.14475601 26.4046,3.86942268 26.0966,3.43875601 C25.9539333,3.23942268 25.8472667,3.00808934 25.6579333,2.85208934 C25.5012667,2.72475601 25.3046,2.66142268 25.1106,2.60408934 C23.0846,2.00408934 20.9572667,1.74808934 18.8459333,1.85075601 C18.5526,1.86542268 18.2559333,1.88675601 17.9739333,1.97075601 C17.6379333,2.07142268 17.3339333,2.25742268 17.0292667,2.43275601 C14.1652667,4.08542268 10.8759333,4.98742268 8.21993333,6.95675601 C7.67993333,7.35808934 7.16726667,7.80142268 6.58593333,8.13942268 C6.2446,8.33742268 5.8646,8.51208934 5.6486,8.84208934 C5.3926,9.23342268 5.4306,9.73942268 5.47793333,10.2040893 C5.57726667,11.178756 5.67593333,12.1540893 5.77526667,13.1294227 C7.13793333,13.5460893 8.5186,13.966756 9.9426,14.0314227 C10.4486,14.0540893 10.9606,14.032756 11.4566,14.1360893 C11.9952667,14.248756 12.5052667,14.5080893 13.0552667,14.532756 C13.5126,14.552756 13.9592667,14.408756 14.3899333,14.2540893 C16.7746,13.3960893 19.0192667,12.1434227 21.4706,11.498756 C21.9446,11.3740893 22.4299333,11.2714227 22.8726,11.0594227 C23.2199333,10.892756 23.5326,10.662756 23.8432667,10.4340893 C24.5026,9.94875601 25.1619333,9.46342268 25.8119333,8.96608934 C27.1086,7.97542268 29.0172667,6.02275601 27.2772667,4.49408934" id="Fill-3" fill="#F6F6F6"></path>
                <path d="M25.1054,4.98882268 C24.7560667,4.52415601 24.3140667,4.12815601 23.8140667,3.83148934 C23.6467333,3.73282268 23.4667333,3.64282268 23.2734,3.63348934 C23.0547333,3.62148934 22.8454,3.71348934 22.6454,3.80282268 C20.2460667,4.87748934 17.8474,5.95215601 15.4487333,7.02748934 C15.0327333,7.21348934 14.5927333,7.40415601 14.1387333,7.36415601 C13.6660667,7.32215601 13.2300667,7.03215601 12.7560667,7.05415601 C11.6960667,7.10148934 11.1194,8.61415601 10.0587333,8.58482268 C9.60006667,8.57148934 9.1794,8.25282268 8.72273333,8.29415601 C8.23006667,8.33815601 7.87806667,8.77548934 7.58806667,9.17548934 C7.2834,9.59548934 6.9734,10.0254893 6.82206667,10.5214893 C6.7774,10.6688227 6.74473333,10.8248227 6.65206667,10.9474893 C6.4814,11.174156 6.16673333,11.2208227 5.88673333,11.268156 C4.86806667,11.4394893 3.90806667,11.850156 2.95806667,12.2568227 C2.8314,11.3748227 2.8294,10.4628227 3.07806667,9.60748934 C3.32673333,8.75148934 3.84206667,7.95415601 4.5934,7.47548934 C4.90206667,7.27948934 5.2674,7.11482268 5.42473333,6.78415601 C5.55406667,6.51215601 5.5174,6.16615601 5.7094,5.93348934 C5.83406667,5.78282268 6.02873333,5.71415601 6.21273333,5.64682268 C7.7314,5.09548934 9.1414,4.24482268 10.3374,3.15748934 C10.6327333,2.88948934 10.9160667,2.60548934 11.2494,2.38682268 C11.7194,2.07682268 12.2667333,1.90882268 12.8054,1.74482268 C13.9234,1.40482268 15.0400667,1.06482268 16.1580667,0.724822675 C17.0827333,0.444156009 18.0147333,0.160822675 18.9760667,0.0574893419 C19.5707333,-0.0071773248 20.1700667,-0.00251065813 20.7680667,0.0028226752 C21.3000667,0.0068226752 21.8414,0.0128226752 22.3480667,0.173489342 C22.7567333,0.304156009 23.1267333,0.530822675 23.4927333,0.754156009 C23.9427333,1.03082268 24.3934,1.30615601 24.8434,1.58215601 C25.1387333,1.76282268 25.9274,2.06215601 26.0574,2.39148934 C26.1754,2.68948934 25.8180667,3.31015601 25.7114,3.58748934 C25.5294,4.06215601 25.3274,4.53082268 25.1054,4.98882268" id="Fill-5" fill="#F3F3F3"></path>
                <path d="M5.88666667,11.268156 C6.16666667,11.2208227 6.48133333,11.174156 6.652,10.9474893 C6.74466667,10.8248227 6.77733333,10.6688227 6.822,10.5214893 C6.97333333,10.0254893 7.28333333,9.59548934 7.588,9.17548934 C7.878,8.77548934 8.23,8.33815601 8.72266667,8.29415601 C9.17933333,8.25348934 9.6,8.57148934 10.0586667,8.58482268 C11.1193333,8.61482268 11.696,7.10148934 12.756,7.05415601 C13.23,7.03215601 13.666,7.32215601 14.1386667,7.36415601 C14.5933333,7.40415601 15.0326667,7.21348934 15.4486667,7.02748934 C17.8473333,5.95215601 20.2466667,4.87748934 22.6453333,3.80282268 C22.8453333,3.71348934 23.0546667,3.62148934 23.274,3.63348934 C23.4673333,3.64282268 23.6473333,3.73282268 23.814,3.83215601 C24.3146667,4.12815601 24.756,4.52415601 25.1053333,4.98882268 C25.2306667,4.72948934 25.3486667,4.46748934 25.462,4.20282268 C24.948,3.76615601 24.438,3.32482268 23.9266667,2.88615601 C23.81,2.78615601 23.69,2.68415601 23.5446667,2.63348934 C23.3593333,2.56815601 23.156,2.59415601 22.962,2.62148934 C20.428,2.97348934 17.8946667,3.32482268 15.3606667,3.67615601 C14.8593333,3.74615601 14.3546667,3.81548934 13.8486667,3.80148934 C13.282,3.78482268 12.7186667,3.66282268 12.196,3.44148934 C12.1026667,3.40148934 12.006,3.35815601 11.9046667,3.36415601 C11.7986667,3.36948934 11.704,3.42815601 11.6146667,3.48548934 C10.2453333,4.36948934 8.98333333,5.41015601 7.75933333,6.48615601 C6.408,7.67415601 5.04733333,8.98682268 4.49266667,10.6988227 C4.45333333,10.8194893 4.416,10.9468227 4.33466667,11.0448227 C4.23533333,11.1648227 4.084,11.226156 3.94,11.282156 C3.62,11.408156 3.30066667,11.5328227 2.98133333,11.6588227 C2.95333333,11.670156 2.92466667,11.6814893 2.896,11.6934893 C2.91066667,11.882156 2.93133333,12.070156 2.958,12.2568227 C3.908,11.850156 4.868,11.4394893 5.88666667,11.268156" id="Fill-7" fill="#E3E3E3"></path>
                <path d="M23.7408,3.10928934 C23.4068,3.06928934 23.0741333,3.17728934 22.7554667,3.28528934 C20.3588,4.09862268 18.0008,5.02728934 15.6928,6.06662268 C15.2428,6.26862268 14.7448,6.47995601 14.2728,6.33662268 C13.8781333,6.21728934 13.5508,5.85995601 13.1388,5.87662268 C12.9041333,5.88662268 12.6941333,6.01862268 12.4974667,6.14728934 C11.6814667,6.67795601 10.8661333,7.20862268 10.0501333,7.73928934 C9.9188,7.82462268 9.78346667,7.91195601 9.63013333,7.94328934 C9.4748,7.97528934 9.31413333,7.94728934 9.15813333,7.91928934 C8.82946667,7.85995601 8.50013333,7.80062268 8.17146667,7.74128934 C8.06346667,7.72262268 7.9508,7.70328934 7.84746667,7.73862268 C7.73146667,7.77795601 7.6488,7.87795601 7.5728,7.97328934 C6.92213333,8.78462268 6.27146667,9.59728934 5.7028,10.467956 C6.1248,10.3366227 6.55146667,10.221956 6.98146667,10.123956 C7.14546667,9.78928934 7.36746667,9.47995601 7.58813333,9.17595601 C7.87813333,8.77528934 8.22946667,8.33862268 8.7228,8.29395601 C9.17946667,8.25328934 9.60013333,8.57128934 10.0588,8.58462268 C11.1194667,8.61462268 11.6961333,7.10128934 12.7554667,7.05395601 C13.2301333,7.03262268 13.6661333,7.32195601 14.1388,7.36395601 C14.5928,7.40395601 15.0321333,7.21328934 15.4488,7.02728934 C17.8474667,5.95262268 20.2461333,4.87728934 22.6454667,3.80262268 C22.8454667,3.71328934 23.0548,3.62195601 23.2734667,3.63328934 C23.4668,3.64328934 23.6468,3.73328934 23.8134667,3.83195601 C24.3141333,4.12795601 24.7561333,4.52395601 25.1054667,4.98862268 C25.2674667,4.65395601 25.4181333,4.31462268 25.5594667,3.97062268 C25.1934667,3.73862268 24.7208,3.52595601 24.5128,3.40928934 C24.2701333,3.27262268 24.0168,3.14195601 23.7408,3.10928934" id="Fill-9" fill="#C5C3C3"></path>
                <path d="M0.0868666667,13.8000227 C0.0482,14.009356 0.111533333,14.223356 0.1742,14.4266893 C0.527533333,15.5726893 0.880866667,16.7186893 1.2342,17.8646893 C1.2702,17.981356 1.3082,18.1020227 1.38753333,18.195356 C1.62953333,18.4780227 2.0782,18.363356 2.4482,18.4026893 C3.22886667,18.485356 3.69286667,19.291356 4.33286667,19.7460227 C3.72553333,20.0826893 3.63153333,20.901356 3.27886667,21.499356 C3.13086667,21.749356 2.93353333,21.9646893 2.76753333,22.2026893 C2.5262,22.5500227 2.35486667,22.945356 2.2662,23.3586893 C2.2262,23.543356 2.2042,23.7386893 2.2582,23.9200227 C2.30753333,24.085356 2.4162,24.225356 2.5222,24.3606893 C3.54753333,25.667356 4.5722,26.9740227 5.59753333,28.2806893 C5.69086667,28.399356 5.7882,28.5220227 5.9202,28.595356 C6.3482,28.8306893 6.85286667,28.451356 7.14686667,28.0626893 C7.45286667,27.6580227 7.70153333,27.2140227 7.94886667,26.7720227 C8.63686667,25.541356 9.3242,24.3120227 10.0122,23.0820227 C10.3215333,22.5286893 10.6408667,21.8880227 10.4362,21.287356 C10.2675333,20.7920227 9.79153333,20.481356 9.36686667,20.175356 C7.97086667,19.1700227 6.84553333,17.8426893 5.6342,16.6200227 C4.42353333,15.397356 3.06686667,14.2420227 1.42886667,13.7160227 C1.02153333,13.585356 0.2182,13.087356 0.0868666667,13.8000227" id="Fill-11" fill="#C5C3C4"></path>
                <path d="M8.69266667,8.60148934 C8.29466667,9.12815601 7.83533333,9.61748934 7.28133333,9.97682268 C6.77266667,10.3074893 6.19866667,10.5194893 5.63,10.7288227 L1.41333333,12.2834893 C1.14933333,12.3808227 0.881333333,12.4794893 0.649333333,12.6394893 C0.293333333,12.884156 0.0326666667,13.280156 -5.32907052e-15,13.710156 C0.831333333,14.0568227 1.48333333,14.722156 2.09066667,15.3874893 C3.00733333,16.3914893 3.88133333,17.4348227 4.71,18.5128227 C4.994,18.8834893 5.27466667,19.2594893 5.60533333,19.5888227 C5.686,19.6694893 5.78066667,19.752156 5.89533333,19.7541805 C5.98866667,19.7554893 6.07333333,19.702156 6.152,19.6508227 C7.406,18.8288227 8.66,18.006156 9.91466667,17.1848227 C10.1446667,17.0334893 10.3753333,16.882156 10.58,16.6974893 C10.8113333,16.488156 11.004,16.240156 11.198,15.9954893 C11.97,15.0188227 12.808,14.0294893 13.206,12.8294893 C13.2986667,12.5488227 13.398,12.3394893 13.2473333,12.1034893 C13.0793333,11.840156 12.648,11.6008227 12.4053333,11.402156 C11.842,10.9414893 11.27,10.4908227 10.69,10.0508227 C10.034,9.55415601 9.36866667,9.07015601 8.69266667,8.60148934" id="Fill-13" fill="#E3E3E3"></path>
                <path d="M26.9556667,31.6822227 C27.2616667,31.9962227 27.6396667,32.3742227 27.5216667,32.7962227 C27.477,32.9548893 27.3656667,33.085556 27.2563333,33.209556 C25.8296667,34.8248893 24.1923333,36.253556 22.3996667,37.449556 C22.081,37.6622227 21.745,37.8722227 21.3663333,37.927556 C21.0416667,37.9748893 20.7123333,37.9048893 20.3956667,37.8202227 C18.263,37.2508893 16.3336667,36.0242227 14.167,35.6042227 C15.591,33.269556 16.651,30.6988893 18.359,28.563556 C19.219,27.487556 20.235,26.5368893 21.365,25.749556 C21.5863333,25.5948893 21.8296667,25.4422227 22.099,25.4442032 C22.287,25.4462227 22.4656667,25.5248893 22.633,25.6102227 C23.7363333,26.1702227 24.637,27.1082227 25.1816667,28.2168893 C25.7783333,29.4308893 25.9643333,30.6668893 26.9556667,31.6822227" id="Fill-15" fill="#E3E3E3"></path>
                <path d="M20.177,30.8560227 C20.1596667,31.0866893 20.141,31.321356 20.053,31.535356 C19.963,31.7540227 19.8063333,31.9360227 19.6516667,32.1146893 C18.441,33.5120227 17.231,34.909356 16.021,36.3066893 C15.8436667,36.511356 15.663,36.7200227 15.4376667,36.8706893 C15.041,37.137356 14.5476667,37.2046893 14.073,37.2526893 C13.9896667,37.2606893 13.9003333,37.267356 13.8283333,37.225356 C13.7563333,37.1826893 13.7183333,37.101356 13.685,37.0246893 C13.5356667,36.6820227 13.3856667,36.3406893 13.2363333,35.9980227 C13.1883333,35.8866893 13.1383333,35.771356 13.1363122,35.649356 C13.135,35.5086893 13.197,35.3746893 13.2583333,35.2480227 C13.669,34.399356 14.111,33.5660227 14.5523333,32.733356 C15.0723333,31.753356 15.631,30.729356 16.565,30.1286893 C17.3836667,29.6020227 18.3863333,29.4700227 19.353,29.3506893 C19.6636667,29.3126893 20.1303333,29.2746893 20.263,29.621356 C20.3756667,29.917356 20.201,30.5400227 20.177,30.8560227" id="Fill-17" fill="#CAC2C4"></path>
                <path d="M22.3967333,28.061756 C21.9500667,28.613756 21.5027333,29.1664227 21.0554,29.7184227 C19.0040667,32.2530893 16.9420667,34.7990893 14.5220667,36.985756 C14.3714,37.121756 14.2120667,37.2604227 14.0154,37.3124227 C13.6607333,37.4064227 13.3067333,37.1944227 12.9934,37.0050893 C11.7240667,36.2384227 10.3280667,35.6824227 8.8794,35.3670893 C8.7494,35.3390893 8.61206667,35.3090893 8.5134,35.219756 C8.38073333,35.099756 8.35273333,34.9044227 8.33406667,34.7250893 C8.14406667,32.925756 8.0354,31.117756 8.00806667,29.3090893 C8.0054,29.1044227 8.00473333,28.8944227 8.0774,28.703756 C8.24873333,28.257756 8.7514,28.0584227 9.17673333,27.841756 C9.82273333,27.5130893 10.3854,27.0470893 10.9634,26.609756 C13.5580667,24.6470893 16.5514,23.2144227 19.7080667,22.4250893 C20.9107333,22.1244227 22.2447333,21.9304227 23.3414,22.5110893 C23.5767333,22.6350893 23.7994,22.797756 23.9474,23.0204227 C24.1427333,23.3130893 24.1907333,23.6764227 24.2560667,24.0224227 C24.3394,24.4664227 24.4607333,24.9030893 24.6160667,25.3264227 C24.8207333,25.8864227 24.6414,25.8450893 24.1974,26.177756 C23.4980667,26.7010893 22.9420667,27.3870893 22.3967333,28.061756" id="Fill-19" fill="#F1F1F1"></path>
                <path d="M20.7238667,22.9640893 C20.6725333,23.454756 20.2525333,23.8140893 19.8645333,24.1194227 C17.9832,25.5980893 16.1018667,27.0774227 14.2205333,28.5560893 C13.9132,28.7980893 13.5985333,29.0434227 13.2292,29.172756 C12.8625333,29.3020893 12.4658667,29.3074227 12.0778667,29.3100893 C9.9392,29.3220893 7.79986667,29.2734227 5.66386667,29.1640893 C5.49586667,28.6380893 6.0452,28.1700893 6.18386667,27.6354227 C6.27586667,27.2820893 6.18186667,26.908756 6.19786667,26.5440893 C6.27453333,24.8420893 8.60653333,23.896756 8.65386667,22.1940893 C8.6632,21.8514227 8.5732,21.5080893 8.61186667,21.1680893 C8.6512,20.8180893 8.82186667,20.4994227 9.0012,20.196756 C10.4932,17.670756 12.7612,15.6374227 15.3558667,14.268756 C15.7125333,14.080756 16.0825333,13.9020893 16.4805333,13.838756 C16.8792,13.7760893 17.3145333,13.8420893 17.6245333,14.1000893 C17.9572,14.376756 18.0925333,14.8174227 18.2185333,15.230756 C18.6392,16.6120893 19.1285333,17.9720893 19.6852,19.304756 C19.9478667,19.932756 20.3945333,20.6074227 20.5612,21.2620893 C20.6298667,21.530756 20.5578667,21.7394227 20.5852,22.0220893 C20.6158667,22.3400893 20.7578667,22.6380893 20.7238667,22.9640893" id="Fill-21" fill="#E3E3E3"></path>
                <path d="M5.66366667,29.163956 C5.94833333,29.177956 6.23233333,29.1912893 6.517,29.2046227 C8.509,28.9872893 10.501,28.7632893 12.473,28.409956 C12.5323333,28.3992893 12.595,28.3866227 12.6396667,28.3466227 C12.6783333,28.3126227 12.699,28.2612893 12.7176667,28.2126227 C12.8096667,27.9726227 13.3876667,26.8926227 13.2356667,26.6892893 C13.0843333,26.4866227 11.9076667,26.7012893 11.6516667,26.713956 C11.5963333,26.2726227 11.5403333,25.8312893 11.485,25.3892893 C11.1983333,25.9232893 10.911,26.455956 10.6236667,26.989956 C10.5736667,27.0832893 10.5203333,27.179956 10.4323333,27.2386227 C10.3383333,27.3026227 10.219,27.3132893 10.1056667,27.3212893 C8.79966667,27.417956 7.49433333,27.513956 6.189,27.6106227 C6.187,27.6192893 6.18633333,27.6272893 6.18433333,27.6352893 C6.045,28.169956 5.49566667,28.637956 5.66366667,29.163956" id="Fill-23" fill="#F1F1F1"></path>
                <path d="M16.7473333,9.79355601 C13.136,11.4448893 9.52533333,13.0948893 5.914,14.745556 C5.64133333,14.869556 5.31866667,15.0868893 5.384,15.379556 C5.414,15.5162227 5.52466667,15.6168893 5.62933333,15.7088893 C6.18066667,16.1922227 6.73266667,16.6748893 7.284,17.1588893 C8.04666667,17.1642227 8.81,17.169556 9.57266667,17.175556 C9.978,17.1788893 10.3886667,17.1808893 10.7813333,17.079556 C11.1153333,16.993556 11.426,16.8348893 11.7293333,16.6688893 C12.4033333,16.3022227 13.0586667,15.8988893 13.6913333,15.463556 C14.6293333,14.8168893 15.5206667,14.0982227 16.5126667,13.5382227 C17.5773333,12.937556 18.816,12.4642227 19.44,11.413556 C19.5946667,11.1522227 19.704,10.8662227 19.864,10.6088893 C20.0133333,10.3682227 20.2053333,10.157556 20.3613333,9.92222268 C20.4966667,9.71955601 21.0486667,8.82022268 20.916,8.57822268 C20.776,8.32155601 19.8313333,8.63222268 19.5846667,8.69555601 C18.6,8.94822268 17.6693333,9.37222268 16.7473333,9.79355601" id="Fill-25" fill="#C5C3C4"></path>
                <path d="M16.1695333,12.7720227 C12.7388667,13.4566893 9.30753333,14.1426893 5.89486667,14.9146893 C5.6902,14.961356 5.4662,15.0200227 5.34486667,15.1920227 C5.25086667,15.3266893 5.2402,15.501356 5.2342,15.665356 C5.1982,16.5546893 5.16286667,17.4446893 5.12753333,18.3340227 C5.12086667,18.499356 5.1142,18.6666893 5.1522,18.827356 C5.20153333,19.0340227 5.3202,19.215356 5.4362,19.3920227 C5.7702,19.8980227 6.1042,20.4046893 6.43753333,20.911356 C6.56553333,21.1046893 6.69753333,21.303356 6.88953333,21.4340227 C7.06486667,21.553356 7.27553333,21.6060227 7.48153333,21.655356 C8.90086667,21.9926893 10.3388667,22.2500227 11.7875333,22.425356 C13.0008667,22.5726893 14.2722,22.6546893 15.4055333,22.199356 C15.5902,22.125356 15.7782,22.0300227 15.8875333,21.8640227 C15.9822,21.7206893 16.0055333,21.543356 16.0275333,21.373356 C16.2008667,19.983356 16.3748667,18.593356 16.5488667,17.2040227 C16.6275333,16.573356 16.7068667,15.9400227 16.8768667,15.327356 C17.0188667,14.8140227 17.2235333,14.319356 17.4275333,13.8266893 C17.5595333,13.5080227 18.1055333,12.6360227 17.7528667,12.463356 C17.5208667,12.3506893 16.4295333,12.6980227 16.1695333,12.7720227" id="Fill-27" fill="#F1F1F1"></path>
                <path d="M27.3853333,31.321556 C27.646,31.1022227 27.774,30.7668893 27.9766667,30.4928893 C28.4666667,29.8282227 29.3286667,29.5842227 30.0473333,29.177556 C31.54,28.3342227 32.4626667,26.7402227 33.8673333,25.7568893 C34.2213333,25.5088893 34.6113333,25.295556 34.8833333,24.959556 C35.0993333,24.6928893 35.2266667,24.3662227 35.3313333,24.039556 C35.724,22.8188893 35.854,21.5142227 35.7086667,20.2402227 C35.636,19.607556 35.5133333,18.9048893 35.8793333,18.3842227 C36.0566667,18.1308893 36.3466667,17.9248893 36.3733333,17.6168893 C36.3846667,17.485556 36.344,17.3568893 36.304,17.231556 C36.048,16.4282227 35.792,15.625556 35.536,14.8228893 C35.4706667,14.6182227 35.3966667,14.4002227 35.2253333,14.271556 C34.9966667,14.097556 34.6766667,14.1402227 34.394,14.1922227 C33.014,14.4482227 31.6446667,14.759556 30.2893333,15.1248893 C30.438,14.2108893 30.586,13.279556 30.452,12.3628893 C30.318,11.4462227 29.8546667,10.5302227 29.046,10.079556 C28.8286667,10.3768893 28.6026667,10.667556 28.368,10.9508893 L28.7233333,12.9142227 L27.202,14.6522227 L24.2433333,16.763556 L23.072,17.7648893 C22.918,18.3048893 22.7873333,18.8522227 22.6573333,19.3982227 C22.2593333,21.079556 21.86,22.759556 21.462,24.4402227 C21.432,24.5642227 21.4026667,24.6928893 21.42,24.8202227 C21.4433333,24.9888893 21.5466667,25.1348893 21.6473333,25.2728893 C22.8033333,26.8648893 23.96,28.4582227 25.1166667,30.0508893 C25.5026667,30.581556 26.6013333,31.9808893 27.3853333,31.321556" id="Fill-29" fill="#F9F9F9"></path>
                <path d="M25.3700667,21.2050227 C25.4500667,21.2710227 25.5374,21.3390227 25.6407333,21.3430227 C25.7527333,21.3470227 25.8514,21.274356 25.9394,21.2056893 C26.3514,20.8836893 26.7634,20.5610227 27.1754,20.2396893 C27.3174,20.128356 27.4620667,20.016356 27.6294,19.950356 C27.7587333,19.900356 27.8987333,19.8796893 28.0367333,19.8616893 C28.4614,19.808356 28.8894,19.7830227 29.3174,19.786356 C29.4627333,19.7870227 29.6100667,19.7916893 29.7494,19.8336893 C30.0220667,19.916356 30.2307333,20.1316893 30.4774,20.2736893 C30.8874,20.5096893 31.3814,20.5310227 31.8454,20.624356 C32.3094,20.7176893 32.8054,20.9296893 32.9887333,21.366356 C32.4640667,21.2536893 31.8980667,21.3496893 31.4387333,21.6270227 C31.1920667,21.7756893 30.9514,21.9830227 30.6634,21.976356 C30.4120667,21.9710227 30.1967333,21.802356 29.9594,21.7190227 C29.5934,21.590356 29.1900667,21.670356 28.8147333,21.7656893 C27.7134,22.044356 26.6407333,22.4450227 25.5200667,22.632356 C25.4160667,22.6496893 25.3074,22.664356 25.2074,22.6316893 C25.0960667,22.5950227 25.0120667,22.5036893 24.9340667,22.4156893 C24.5040667,21.9370227 24.0747333,21.4570227 23.6454,20.9770227 C23.5874,20.9130227 23.5280667,20.846356 23.4987333,20.7650227 C23.4000667,20.492356 23.6500667,20.1390227 23.7080667,19.876356 C24.2987333,20.1670227 24.8554,20.7850227 25.3700667,21.2050227" id="Fill-31" fill="#F1F1F1"></path>
                <path d="M25.4449333,6.41075601 C24.8682667,6.60542268 24.3369333,6.91275601 23.7816,7.16208934 C22.3102667,7.82142268 20.6756,8.06875601 19.2262667,8.77675601 C18.5869333,9.08942268 17.9929333,9.48675601 17.4016,9.88342268 C16.5689333,10.440756 15.7362667,10.998756 14.9042667,11.5560893 C15.5422667,12.1294227 16.1916,12.7180893 16.6056,13.468756 C17.0536,14.280756 17.1929333,15.2214227 17.3242667,16.138756 C17.5929333,18.0080893 17.8616,19.876756 18.1296,21.7460893 C18.1462667,21.860756 18.1682667,21.9860893 18.2569333,22.0600893 C18.3276,22.118756 18.4249333,22.1314227 18.5156,22.1414227 C19.1929333,22.2174227 19.8702667,22.292756 20.5469333,22.368756 C20.8936,22.4074227 21.2789333,22.4360893 21.5556,22.2234227 C21.8142667,22.0240893 21.8949333,21.674756 21.9589333,21.3540893 C22.1016,20.630756 22.2442667,19.9074227 22.3876,19.184756 C22.4749333,18.7434227 22.5649333,18.2940893 22.7816,17.8994227 C23.0369333,17.436756 23.4489333,17.082756 23.8669333,16.7580893 C24.5482667,16.2300893 25.2689333,15.752756 26.0216,15.3314227 C26.6642667,14.9720893 27.3382667,14.646756 27.8822667,14.1494227 C28.1322667,13.9220893 28.3569333,13.6480893 28.4456,13.3214227 C28.5156,13.0674227 28.4989333,12.7980893 28.4809333,12.5354227 C28.4476,12.034756 28.4142667,11.5340893 28.3809333,11.0334227 C28.3062667,9.91608934 28.2282667,8.77942268 27.8229333,7.73542268 C27.6696,7.34142268 27.4289333,6.66475601 27.0942667,6.38275601 C26.6909333,6.04342268 25.8862667,6.26208934 25.4449333,6.41075601" id="Fill-33" fill="#F1F1F1"></path>
                <path d="M26.4657333,10.745356 C25.2117333,10.7486893 23.9570667,10.7526893 22.7030667,10.7560227 C22.5857333,10.7566893 22.4657333,10.757356 22.3537333,10.7926893 C22.2464,10.827356 22.1524,10.8920227 22.0604,10.955356 L20.1410667,12.2820227 C21.3204,11.9886893 22.5130667,11.7500227 23.7150667,11.5660227 C23.9404,11.5320227 24.1690667,11.499356 24.3964,11.523356 C24.6290667,11.547356 24.8517333,11.6300227 25.0717333,11.7120227 C25.5537333,11.893356 26.0357333,12.073356 26.5184,12.2540227 C26.8850667,12.391356 27.4550667,12.733356 27.8377333,12.7006893 C27.4884,12.0146893 26.9130667,11.375356 26.4657333,10.745356" id="Fill-35" fill="#E3E3E3"></path>
                <path d="M27.8980667,5.39902268 C28.3367333,5.42968934 28.7094,5.75768934 28.9154,6.14568934 C29.1220667,6.53302268 29.1907333,6.97702268 29.2574,7.41168934 C29.4320667,8.56368934 29.6080667,9.72302268 29.5780667,10.888356 C29.5587333,11.628356 29.4560667,12.3630227 29.3240667,13.0916893 C29.2027333,13.758356 29.0447333,14.4456893 28.6274,14.9796893 C28.4414,15.2170227 28.2094,15.4170227 28.0507333,15.6736893 C27.5394,16.5036893 27.9374,17.6696893 27.4220667,18.4976893 C26.8967333,18.0796893 26.3980667,17.628356 25.9287333,17.1470227 C25.6720667,16.8836893 25.2507333,16.5990227 24.9854,16.8536893 C24.8854,16.9490227 24.8527333,17.0930227 24.8240667,17.2276893 L23.2800667,24.5536893 C22.4967333,23.9090227 21.7287333,23.246356 20.9760667,22.5650227 C20.2174,21.8790227 19.4587333,21.154356 19.0067333,20.236356 C18.9400667,20.1016893 18.8794,19.9496893 18.9174,19.8036893 C18.9434,19.7036893 19.0134,19.6216893 19.0827333,19.5450227 C20.6807333,17.778356 23.1154,16.998356 24.8580667,15.3750227 C24.2547333,14.8330227 23.6514,14.292356 23.0480667,13.750356 C23.8427333,13.5756893 24.6480667,13.4450227 25.4574,13.3610227 C26.3054,13.2730227 27.1414,13.0796893 27.9794,12.922356 C27.5427333,10.622356 26.8314,8.37368934 25.8660667,6.24102268 C26.5200667,5.95902268 27.1880667,5.35035601 27.8980667,5.39902268" id="Fill-37" fill="#E3E3E3"></path>
            </g>
            <g id="Group-26" transform="translate(127.207784, 188.710200)">
                <path d="M32.6718164,28.065 C33.0598164,27.7043333 33.3811498,27.2603333 33.8404831,26.9963333 C34.0531498,26.875 34.2951498,26.7923333 34.4684831,26.619 C34.6111498,26.4763333 34.6931498,26.2863333 34.7698164,26.1003333 C35.5711498,24.1443333 36.0391498,22.0523333 36.1491498,19.9423333 C36.1644831,19.649 36.1724831,19.3523333 36.1171498,19.063 C36.0511498,18.7176667 35.8964831,18.397 35.7524831,18.0763333 C34.3964831,15.0603333 33.8291498,11.697 32.1364831,8.857 C31.7924831,8.279 31.4024831,7.725 31.1251498,7.11166667 C30.9618164,6.75233333 30.8258164,6.357 30.5191498,6.10833333 C30.1564831,5.815 29.6484831,5.80166667 29.1818164,5.80166667 L26.2411498,5.80366667 C25.6891498,7.11833333 25.1324831,8.44966667 24.9251498,9.859 C24.8518164,10.3603333 24.8218164,10.873 24.6691498,11.3556667 C24.5024831,11.8803333 24.1931498,12.3616667 24.1138164,12.9063333 C24.0471498,13.359 24.1458164,13.8183333 24.2564831,14.2623333 C24.8711498,16.721 25.8918164,19.0796667 26.2864831,21.5836667 C26.3624831,22.0683333 26.4164831,22.561 26.5831498,23.023 C26.7138164,23.385 26.9111498,23.7196667 27.1071498,24.0516667 C27.5238164,24.7563333 27.9404831,25.461 28.3698164,26.1583333 C29.2258164,27.5476667 30.9764831,29.643 32.6718164,28.065" id="Fill-39" fill="#F6F6F6"></path>
                <path d="M32.3980831,25.8546667 C32.8960831,25.554 33.3340831,25.154 33.6787498,24.686 C33.7940831,24.53 33.9014164,24.36 33.9307498,24.1686667 C33.9640831,23.952 33.8940831,23.734 33.8254164,23.5266667 C32.9967498,21.0313333 32.1687498,18.536 31.3407498,16.0413333 C31.1967498,15.6093333 31.0507498,15.1526667 31.1367498,14.7046667 C31.2260831,14.2386667 31.5580831,13.834 31.5847498,13.36 C31.6440831,12.3006667 30.1960831,11.5746667 30.3327498,10.5226667 C30.3920831,10.068 30.7507498,9.68133333 30.7560831,9.22266667 C30.7614164,8.728 30.3620831,8.334 29.9927498,8.00533333 C29.6060831,7.65933333 29.2094164,7.30866667 28.7314164,7.108 C28.5894164,7.04866667 28.4374164,7.00066667 28.3240831,6.896 C28.1154164,6.70266667 28.1007498,6.38533333 28.0820831,6.102 C28.0140831,5.07133333 27.7020831,4.07466667 27.3920831,3.08933333 C28.2827498,3.052 29.1907498,3.14133333 30.0167498,3.47466667 C30.8434164,3.808 31.5847498,4.40066667 31.9854164,5.19666667 C32.1500831,5.52333333 32.2760831,5.90333333 32.5894164,6.09266667 C32.8474164,6.24933333 33.1954164,6.24733333 33.4074164,6.462 C33.5447498,6.60066667 33.5934164,6.802 33.6414164,6.99133333 C34.0380831,8.558 34.7434164,10.046 35.7040831,11.3453333 C35.9414164,11.666 36.1954164,11.9773333 36.3800831,12.33 C36.6407498,12.8293333 36.7527498,13.3906667 36.8614164,13.9433333 L37.5394164,17.3806667 C37.7260831,18.3293333 37.9140831,19.2853333 37.9207498,20.252 C37.9254164,20.85 37.8600831,21.446 37.7954164,22.04 C37.7374164,22.5686667 37.6767498,23.1066667 37.4660831,23.5946667 C37.2954164,23.9886667 37.0327498,24.3346667 36.7727498,24.6753333 C36.4534164,25.096 36.1334164,25.516 35.8140831,25.9366667 C35.6040831,26.212 35.2267498,26.9666667 34.8867498,27.0626667 C34.5787498,27.15 33.9960831,26.732 33.7314164,26.5986667 C33.2767498,26.3686667 32.8320831,26.1206667 32.3980831,25.8546667" id="Fill-41" fill="#F3F3F3"></path>
                <path d="M28.0820164,6.10206667 C28.1006831,6.3854 28.1153498,6.70273333 28.3240164,6.8954 C28.4373498,7.00073333 28.5893498,7.04873333 28.7313498,7.10806667 C29.2093498,7.30873333 29.6060164,7.6594 29.9926831,8.00473333 C30.3620164,8.33406667 30.7613498,8.7274 30.7560164,9.22273333 C30.7506831,9.6814 30.3920164,10.0680667 30.3326831,10.5227333 C30.1960164,11.5747333 31.6440164,12.3007333 31.5846831,13.3600667 C31.5580164,13.8340667 31.2260164,14.2387333 31.1373498,14.7047333 C31.0513498,15.1527333 31.1966831,15.6094 31.3406831,16.0414 C32.1686831,18.5360667 32.9966831,21.0314 33.8253498,23.5267333 C33.8940164,23.7340667 33.9640164,23.9514 33.9306831,24.1687333 C33.9013498,24.3600667 33.7940164,24.5300667 33.6793498,24.6860667 C33.3340164,25.1540667 32.8960164,25.5540667 32.3980164,25.8547333 C32.6433498,26.0047333 32.8920164,26.1494 33.1440164,26.2880667 C33.6300164,25.8207333 34.1206831,25.3580667 34.6086831,24.8934 C34.7200164,24.7867333 34.8333498,24.6774 34.8986831,24.5387333 C34.9820164,24.3607333 34.9760164,24.1560667 34.9686831,23.9594 C34.8733498,21.4034 34.7780164,18.8474 34.6826831,16.2914 C34.6646831,15.7847333 34.6453498,15.2767333 34.7106831,14.7740667 C34.7840164,14.2114 34.9626831,13.6634 35.2346831,13.1667333 C35.2840164,13.0774 35.3366831,12.9854 35.3420164,12.8840667 C35.3466831,12.7780667 35.2980164,12.6774 35.2493498,12.5834 C34.5073498,11.1320667 33.5993498,9.77206667 32.6513498,8.44606667 C31.6053498,6.9814 30.4360164,5.49673333 28.7893498,4.77206667 C28.6720164,4.7214 28.5500164,4.6714 28.4600164,4.58073333 C28.3513498,4.47006667 28.3053498,4.31273333 28.2633498,4.1634 C28.1706831,3.8334 28.0780164,3.50273333 27.9853498,3.17206667 C27.9773498,3.1434 27.9686831,3.1134 27.9593498,3.08406667 C27.7706831,3.0794 27.5813498,3.08155627 27.3920164,3.08873333 C27.7020164,4.07473333 28.0140164,5.0714 28.0820164,6.10206667" id="Fill-43" fill="#E3E3E3"></path>
                <path d="M34.4052164,24.6860667 C34.4785498,24.3574 34.4052164,24.0160667 34.3292164,23.6880667 C33.7605498,21.2220667 33.0738831,18.7827333 32.2718831,16.3814 C32.1158831,15.9140667 31.9565498,15.3960667 32.1452164,14.9414 C32.3038831,14.5607333 32.6925498,14.2714 32.7172164,13.8594 C32.7312164,13.6247333 32.6205498,13.4027333 32.5125498,13.1940667 C32.0665498,12.3287333 31.6205498,11.4640667 31.1738831,10.5987333 C31.1025498,10.4600667 31.0292164,10.3167333 31.0138831,10.1607333 C30.9972164,10.0034 31.0418831,9.84606667 31.0852164,9.69406667 C31.1772164,9.37206667 31.2692164,9.0514 31.3612164,8.7294 C31.3912164,8.62473333 31.4212164,8.51406667 31.3965498,8.4074 C31.3692164,8.28806667 31.2778831,8.19606667 31.1905498,8.11073333 C30.4485498,7.38206667 29.7058831,6.65273333 28.8965498,6.00006667 C28.9852164,6.43206667 29.0558831,6.86806667 29.1105498,7.30673333 C29.4272164,7.5034 29.7125498,7.7554 29.9925498,8.0054 C30.3625498,8.33406667 30.7612164,8.72806667 30.7558831,9.22273333 C30.7512164,9.6814 30.3918831,10.0680667 30.3332164,10.5227333 C30.1965498,11.5747333 31.6438831,12.3007333 31.5845498,13.3600667 C31.5578831,13.8340667 31.2258831,14.2387333 31.1372164,14.7047333 C31.0512164,15.1527333 31.1965498,15.6094 31.3405498,16.0414 C32.1685498,18.5360667 32.9965498,21.0314 33.8252164,23.5267333 C33.8938831,23.7340667 33.9638831,23.9514 33.9312164,24.1687333 C33.9018831,24.3600667 33.7938831,24.5300667 33.6792164,24.6860667 C33.3338831,25.1540667 32.8958831,25.5540667 32.3978831,25.8547333 C32.7145498,26.0494 33.0372164,26.2334 33.3652164,26.4080667 C33.6325498,26.0674 33.8918831,25.6187333 34.0292164,25.4234 C34.1892164,25.1967333 34.3452164,24.9567333 34.4052164,24.6860667" id="Fill-45" fill="#C5C3C3"></path>
                <path d="M26.1454831,0.0773333333 C25.9408164,0.0173333333 25.7221498,0.0593333333 25.5134831,0.101333333 C24.3381498,0.338 23.1621498,0.573333333 21.9868164,0.81 C21.8668164,0.834 21.7428164,0.86 21.6428164,0.929333333 C21.3368164,1.142 21.4054831,1.6 21.3294831,1.964 C21.1681498,2.73266667 20.3194831,3.11333333 19.8034831,3.704 C19.5294831,3.06533333 18.7241498,2.89066667 18.1648164,2.47933333 C17.9308164,2.30733333 17.7361498,2.08866667 17.5161498,1.89933333 C17.1954831,1.62466667 16.8188164,1.41466667 16.4168164,1.28533333 C16.2368164,1.22733333 16.0448164,1.18466667 15.8588164,1.22 C15.6894831,1.25266667 15.5394831,1.34666667 15.3941498,1.43866667 C13.9908164,2.32733333 12.5881498,3.216 11.1848164,4.104 C11.0568164,4.18533333 10.9248164,4.26933333 10.8388164,4.39466667 C10.5621498,4.79533333 10.8888164,5.33666667 11.2461498,5.66866667 C11.6174831,6.01266667 12.0341498,6.30533333 12.4494831,6.59533333 L15.9134831,9.01933333 C16.4328164,9.38266667 17.0381498,9.76466667 17.6561498,9.62133333 C18.1661498,9.50333333 18.5228164,9.06133333 18.8694831,8.66933333 C20.0108164,7.38133333 21.4441498,6.39533333 22.7821498,5.31333333 C24.1201498,4.23066667 25.4068164,2.998 26.0948164,1.42066667 C26.2661498,1.02866667 26.8414831,0.279333333 26.1454831,0.0773333333" id="Fill-47" fill="#C5C3C4"></path>
                <path d="M30.4534164,9.162 C29.9687498,8.71266667 29.5280831,8.20666667 29.2260831,7.61933333 C28.9494164,7.08 28.7954164,6.48733333 28.6440831,5.90066667 C28.2700831,4.45066667 27.8960831,3 27.5214164,1.54933333 C27.4514164,1.27666667 27.3794164,1.00066667 27.2440831,0.753333333 C27.0367498,0.374666667 26.6687498,0.0753333333 26.2440831,2.84217094e-14 C25.8160831,0.792 25.0880831,1.37333333 24.3654164,1.91133333 C23.2740831,2.72266667 22.1480831,3.48733333 20.9920831,4.20333333 C20.5947498,4.44933333 20.1927498,4.69 19.8314164,4.98533333 C19.7434164,5.05866667 19.6520831,5.14466667 19.6380831,5.258 C19.6274164,5.35066667 19.6720831,5.44 19.7154164,5.52333333 C20.4067498,6.854 21.0987498,8.184 21.7907498,9.51466667 C21.9174164,9.75933333 22.0454164,10.0046667 22.2087498,10.226 C22.3934164,10.4773333 22.6207498,10.694 22.8454164,10.9113333 C23.7387498,11.7773333 24.6394164,12.7106667 25.7934164,13.2273333 C26.0634164,13.348 26.2607498,13.4673333 26.5107498,13.3413333 C26.7894164,13.2006667 27.0714164,12.7953333 27.2934164,12.5746667 C27.8087498,12.0606667 28.3147498,11.5366667 28.8107498,11.0033333 C29.3707498,10.4006667 29.9187498,9.78666667 30.4534164,9.162" id="Fill-49" fill="#E3E3E3"></path>
                <path d="M5.65394977,25.0128667 C5.3112831,25.2855333 4.89661644,25.6235333 4.48861644,25.4642 C4.33461644,25.4035333 4.21594977,25.2795333 4.10394977,25.1588667 C2.64061644,23.5762 1.3832831,21.8042 0.373283104,19.9002 C0.19394977,19.5615333 0.0186164369,19.2062 0.0012831036,18.8242 C-0.0127168964,18.4968667 0.0899497703,18.1755333 0.206616437,17.8688667 C0.987283104,15.8042 2.40194977,14.0082 3.0372831,11.8942 C5.2172831,13.5455333 7.66794977,14.8595333 9.62061644,16.7728667 C10.6046164,17.7368667 11.4486164,18.8428667 12.1186164,20.0468667 C12.2499498,20.2815333 12.3779498,20.5395333 12.3486164,20.8075333 C12.3279498,20.9948667 12.2319498,21.1642 12.1299498,21.3222 C11.4612831,22.3635333 10.4379498,23.1655333 9.27994977,23.5962 C8.01194977,24.0675333 6.76461644,24.1282 5.65394977,25.0128667" id="Fill-51" fill="#E3E3E3"></path>
                <path d="M7.1568831,18.3514667 C6.92954977,18.3108 6.69754977,18.2694667 6.49354977,18.1601333 C6.28554977,18.0488 6.11954977,17.8734667 5.95754977,17.7021333 C4.6888831,16.3574667 3.42021644,15.0128 2.15154977,13.6688 C1.96554977,13.4714667 1.7768831,13.2708 1.6488831,13.0314667 C1.42354977,12.6108 1.40621644,12.1128 1.40686564,11.6354667 C1.40686564,11.5521333 1.4088831,11.4621333 1.45821644,11.3941333 C1.50754977,11.3274667 1.59221644,11.2981333 1.67221644,11.2721333 C2.02754977,11.1581333 2.3828831,11.0434667 2.7388831,10.9294667 C2.85421644,10.8928 2.97421644,10.8548 3.09554977,10.8654667 C3.23621644,10.8768 3.3628831,10.9521333 3.4828831,11.0268 C4.28554977,11.5208 5.07021644,12.0434667 5.85421644,12.5661333 C6.77754977,13.1828 7.74021644,13.8408 8.24354977,14.8308 C8.6848831,15.6988 8.71621644,16.7094667 8.73754977,17.6828 C8.74421644,17.9961333 8.7348831,18.4634667 8.3768831,18.5608 C8.07154977,18.6434667 7.4688831,18.4068 7.1568831,18.3514667" id="Fill-53" fill="#CAC2C4"></path>
                <path d="M9.71414977,20.841 C9.2094831,20.3403333 8.70481644,19.8403333 8.20014977,19.3396667 C5.88481644,17.0443333 3.55881644,14.7363333 1.62681644,12.109 C1.50681644,11.9456667 1.38414977,11.7723333 1.35281644,11.5723333 C1.2954831,11.2103333 1.54081644,10.879 1.76081644,10.5856667 C2.6514831,9.40033333 3.34481644,8.067 3.80414977,6.65766667 C3.8454831,6.531 3.88881644,6.39766667 3.9874831,6.30833333 C4.12081644,6.18833333 4.31814977,6.18033333 4.4974831,6.17966667 C6.30681644,6.17166667 8.11681644,6.245 9.9194831,6.40033333 C10.1228164,6.417 10.3321498,6.43766667 10.5141498,6.52966667 C10.9408164,6.74433333 11.0894831,7.265 11.2621498,7.71033333 C11.5241498,8.385 11.9308164,8.99233333 12.3074831,9.61033333 C13.9994831,12.3896667 15.1241498,15.5123333 15.5928164,18.7323333 C15.7708164,19.959 15.8294831,21.3056667 15.1421498,22.3376667 C14.9941498,22.5596667 14.8101498,22.765 14.5748164,22.8896667 C14.2634831,23.055 13.8968164,23.0663333 13.5461498,23.0963333 C13.0961498,23.135 12.6494831,23.2123333 12.2121498,23.3236667 C11.6341498,23.471 11.6941498,23.2976667 11.4074831,22.8216667 C10.9568164,22.0736667 10.3301498,21.451 9.71414977,20.841" id="Fill-55" fill="#F1F1F1"></path>
                <path d="M14.9544164,19.6886667 C14.4704164,19.5886667 14.1557498,19.1346667 13.8910831,18.7173333 C12.6084164,16.6973333 11.3264164,14.6766667 10.0437498,12.656 C9.83441644,12.326 9.6210831,11.988 9.52974977,11.608 C9.4390831,11.23 9.4730831,10.8353333 9.50974977,10.4486667 C9.71241644,8.31933333 9.97574977,6.196 10.2997498,4.082 C10.8397498,3.96733333 11.2497498,4.56133333 11.7677498,4.75333333 C12.1097498,4.88 12.4910831,4.824 12.8524164,4.87666667 C14.5377498,5.12333333 15.2437498,7.53866667 16.9330831,7.75733333 C17.2737498,7.80066667 17.6237498,7.746 17.9584164,7.818 C18.3024164,7.89333333 18.6030831,8.09466667 18.8857498,8.30333333 C21.2490831,10.042 23.0437498,12.5026667 24.1450831,15.222 C24.2964164,15.5953333 24.4370831,15.9813333 24.4590831,16.384 C24.4824164,16.7866667 24.3724164,17.2133333 24.0844164,17.496 C23.7757498,17.7986667 23.3237498,17.89 22.8997498,17.9733333 C21.4830831,18.2533333 20.0810831,18.6033333 18.6997498,19.0233333 C18.0477498,19.2213333 17.3317498,19.598 16.6630831,19.6986667 C16.3904164,19.7393333 16.1897498,19.6466667 15.9050831,19.646 C15.5857498,19.6446667 15.2750831,19.7553333 14.9544164,19.6886667" id="Fill-57" fill="#E3E3E3"></path>
                <path d="M10.2994164,4.08193333 C10.2567498,4.36326667 10.2147498,4.64526667 10.1734164,4.9266 C10.1887498,6.92993333 10.2114164,8.9346 10.3654164,10.9326 C10.3694164,10.9926 10.3754164,11.0559333 10.4107498,11.1046 C10.4414164,11.1466 10.4900831,11.1719333 10.5367498,11.1952667 C10.7660831,11.3112667 11.7827498,11.9946 12.0000831,11.8646 C12.2167498,11.7346 12.1220831,10.5412667 12.1347498,10.2859333 C12.5794164,10.2746 13.0247498,10.2632667 13.4694164,10.2532667 L11.9640831,9.23526667 C11.8760831,9.1766 11.7854164,9.11326667 11.7347498,9.01993333 C11.6807498,8.91993333 11.6827498,8.79993333 11.6860831,8.68593333 C11.7207498,7.37726667 11.7567498,6.0686 11.7914164,4.7606 C11.7840831,4.75793333 11.7754164,4.75593333 11.7674164,4.75326667 C11.2500831,4.56126667 10.8394164,3.96726667 10.2994164,4.08193333" id="Fill-59" fill="#F1F1F1"></path>
                <path d="M28.4573498,17.0558667 C27.1780164,13.2972 25.8993498,9.53853333 24.6200164,5.77986667 C24.5233498,5.49653333 24.3393498,5.1532 24.0413498,5.18853333 C23.9033498,5.2052 23.7913498,5.30453333 23.6893498,5.40053333 L22.0813498,6.90053333 L21.8340164,9.17586667 C21.7906831,9.57853333 21.7466831,9.9872 21.8080164,10.3878667 C21.8600164,10.7292 21.9873498,11.0538667 22.1213498,11.3725333 C22.4186831,12.0798667 22.7540164,12.7718667 23.1240164,13.4452 C23.6720164,14.4438667 24.2980164,15.4032 24.7553498,16.4465333 C25.2460164,17.5658667 25.5926831,18.8458667 26.5760164,19.5718667 C26.8193498,19.7525333 27.0933498,19.8892 27.3333498,20.0745333 C27.5573498,20.2472 27.7480164,20.4592 27.9666831,20.6392 C28.1546831,20.7932 28.9933498,21.4332 29.2480164,21.3258667 C29.5173498,21.2118667 29.3040164,20.2412 29.2653498,19.9892 C29.1120164,18.9838667 28.7840164,18.0152 28.4573498,17.0558667" id="Fill-61" fill="#C5C3C4"></path>
                <path d="M25.5520831,16.1815333 C25.2154164,12.6988667 24.8787498,9.21686667 24.4527498,5.7442 C24.4274164,5.53486667 24.3914164,5.30686667 24.2327498,5.16886667 C24.1080831,5.06086667 23.9354164,5.03353333 23.7727498,5.01086667 C22.8914164,4.8862 22.0100831,4.76086667 21.1287498,4.63686667 C20.9647498,4.61286667 20.7987498,4.58953333 20.6347498,4.6122 C20.4247498,4.6402 20.2327498,4.73953333 20.0447498,4.83753333 L18.4320831,5.68153333 C18.2267498,5.78886667 18.0160831,5.90086667 17.8667498,6.0782 C17.7307498,6.24086667 17.6567498,6.44486667 17.5874164,6.64486667 C17.1087498,8.02353333 16.7080831,9.4282 16.3880831,10.8515333 C16.1200831,12.0435333 15.9100831,13.3008667 16.2494164,14.4742 C16.3047498,14.6655333 16.3807498,14.8622 16.5347498,14.9875333 C16.6674164,15.0962 16.8414164,15.1375333 17.0087498,15.1755333 C18.3740831,15.4882 19.7394164,15.8008667 21.1047498,16.1135333 C21.7240831,16.2555333 22.3460831,16.3982 22.9387498,16.6288667 C23.4360831,16.8222 23.9067498,17.0755333 24.3767498,17.3275333 C24.6800831,17.4908667 25.4934164,18.1215333 25.7000831,17.7875333 C25.8360831,17.5682 25.6000831,16.4475333 25.5520831,16.1815333" id="Fill-63" fill="#F1F1F1"></path>
                <path d="M5.9696831,25.4764667 C6.1616831,25.7578 6.48234977,25.9191333 6.73434977,26.1478 C7.34634977,26.7024667 7.50301644,27.5844667 7.83501644,28.3404667 C8.52434977,29.9104667 10.0170164,30.9891333 10.8543498,32.4851333 C11.0656831,32.8624667 11.2390164,33.2711333 11.5456831,33.5758 C11.7890164,33.8178 12.1016831,33.9771333 12.4156831,34.1144667 C13.5910164,34.6284667 14.8756831,34.8878 16.1583498,34.8711333 C16.7950164,34.8631333 17.5063498,34.8111333 17.9876831,35.2278 C18.2216831,35.4298 18.3976831,35.7391333 18.7016831,35.7958 C18.8310164,35.8211333 18.9630164,35.7938 19.0916831,35.7664667 C19.9163498,35.5924667 20.7410164,35.4184667 21.5656831,35.2438 C21.7756831,35.1998 21.9996831,35.1478 22.1456831,34.9904667 C22.3410164,34.7798 22.3310164,34.4578 22.3076831,34.1711333 C22.1916831,32.7724667 22.0196831,31.3791333 21.7923498,29.9938 C22.6870164,30.2331333 23.5990164,30.4744667 24.5243498,30.4331333 C25.4496831,30.3918 26.4070164,30.0231333 26.9370164,29.2638 C26.6630164,29.0178 26.3970164,28.7638 26.1376831,28.5018 L24.1496831,28.6571333 L22.5723498,26.9691333 L20.7690164,23.8138 L19.8910164,22.5471333 C19.3696831,22.3398 18.8376831,22.1551333 18.3070164,21.9704667 C16.6756831,21.4058 15.0436831,20.8404667 13.4116831,20.2744667 C13.2903498,20.2331333 13.1656831,20.1898 13.0376831,20.1944667 C12.8670164,20.2011333 12.7116831,20.2891333 12.5643498,20.3751333 L7.4616831,23.3478 C6.89501644,23.6778 5.3916831,24.6298 5.9696831,25.4764667" id="Fill-65" fill="#F9F9F9"></path>
                <path d="M16.2369498,24.4881333 C16.1642831,24.5608 16.0869498,24.6414667 16.0729498,24.7441333 C16.0569498,24.8548 16.1196164,24.9601333 16.1796164,25.0548 C16.4589498,25.4974667 16.7376164,25.9394667 17.0162831,26.3821333 C17.1122831,26.5334667 17.2096164,26.6888 17.2582831,26.8621333 C17.2956164,26.9968 17.3022831,27.1374667 17.3056164,27.2768 C17.3156164,27.7041333 17.2982831,28.1328 17.2522831,28.5574667 C17.2369498,28.7021333 17.2176164,28.8488 17.1616164,28.9828 C17.0522831,29.2461333 16.8169498,29.4314667 16.6509498,29.6628 C16.3749498,30.0474667 16.3036164,30.5361333 16.1642831,30.9888 C16.0249498,31.4414667 15.7642831,31.9141333 15.3109498,32.0521333 C15.4756164,31.5408 15.4376164,30.9681333 15.2076164,30.4834667 C15.0842831,30.2234667 14.9022831,29.9628 14.9376164,29.6768 C14.9682831,29.4274667 15.1576164,29.2301333 15.2649498,29.0021333 C15.4289498,28.6514667 15.3902831,28.2421333 15.3336164,27.8588 C15.1669498,26.7348 14.8756164,25.6274667 14.8022831,24.4941333 C14.7956164,24.3894667 14.7916164,24.2794667 14.8342831,24.1834667 C14.8822831,24.0761333 14.9809498,24.0021333 15.0762831,23.9321333 C15.5969498,23.5534667 16.1169498,23.1734667 16.6369498,22.7948 C16.7069498,22.7441333 16.7789498,22.6921333 16.8629498,22.6701333 C17.1442831,22.5994667 17.4709498,22.8841333 17.7262831,22.9681333 C17.3776164,23.5261333 16.7069498,24.0181333 16.2369498,24.4881333" id="Fill-67" fill="#F1F1F1"></path>
                <path d="M30.9488831,26.0493333 C30.8128831,25.456 30.5608831,24.8966667 30.3688831,24.3186667 C29.8608831,22.7886667 29.7788831,21.1373333 29.2202164,19.6246667 C28.9735498,18.9566667 28.6375498,18.326 28.3028831,17.698 C27.8315498,16.8133333 27.3602164,15.9293333 26.8888831,15.0453333 C26.2542164,15.6213333 25.6042164,16.2086667 24.8155498,16.5453333 C23.9628831,16.9093333 23.0128831,16.9533333 22.0868831,16.992 C20.1995498,17.0713333 18.3128831,17.1506667 16.4262164,17.23 C16.3108831,17.2346667 16.1842164,17.244 16.1015498,17.3253333 C16.0362164,17.39 16.0142164,17.4846667 15.9942164,17.5746667 C15.8515498,18.2406667 15.7075498,18.9066667 15.5642164,19.5726667 C15.4908831,19.9133333 15.4235498,20.294 15.6075498,20.5906667 C15.7795498,20.8686667 16.1188831,20.9833333 16.4322164,21.0786667 C17.1368831,21.294 17.8422164,21.5086667 18.5468831,21.724 C18.9775498,21.8546667 19.4155498,21.99 19.7855498,22.2453333 C20.2208831,22.5453333 20.5322164,22.9913333 20.8122164,23.44 C21.2695498,24.1706667 21.6722164,24.936 22.0155498,25.7266667 C22.3088831,26.402 22.5642164,27.106 23.0042164,27.6966667 C23.2062164,27.968 23.4555498,28.2193333 23.7715498,28.3413333 C24.0175498,28.4353333 24.2868831,28.446 24.5508831,28.4546667 C25.0522164,28.472 25.5535498,28.4886667 26.0548831,28.5066667 C27.1735498,28.5446667 28.3128831,28.5806667 29.3922164,28.2826667 C29.7995498,28.1693333 30.4975498,27.998 30.8108831,27.6933333 C31.1895498,27.3253333 31.0528831,26.504 30.9488831,26.0493333" id="Fill-69" fill="#F1F1F1"></path>
                <path d="M26.5338164,26.6294 C26.6564831,25.3814 26.7791498,24.1334 26.9011498,22.8847333 C26.9131498,22.7680667 26.9244831,22.6487333 26.8998164,22.5334 C26.8764831,22.4234 26.8218164,22.3234 26.7671498,22.2254 C26.3918164,21.5440667 26.0164831,20.8634 25.6404831,20.1820667 C25.8138164,21.3854 25.9318164,22.5960667 25.9931498,23.8100667 C26.0051498,24.0374 26.0144831,24.2687333 25.9678164,24.4920667 C25.9204831,24.7220667 25.8158164,24.9347333 25.7118164,25.1447333 C25.4838164,25.6067333 25.2558164,26.0680667 25.0278164,26.5300667 C24.8538164,26.8814 24.4558164,27.4140667 24.4504831,27.7980667 C25.1678164,27.5187333 25.8618164,27.0107333 26.5338164,26.6294" id="Fill-71" fill="#E3E3E3"></path>
                <path d="M31.7089498,28.5916667 C31.6349498,29.025 31.2709498,29.363 30.8642831,29.529 C30.4576164,29.6956667 30.0089498,29.7196667 29.5702831,29.7423333 C28.4062831,29.7996667 27.2349498,29.8583333 26.0789498,29.7116667 C25.3449498,29.6176667 24.6236164,29.4416667 23.9122831,29.2376667 C23.2609498,29.0496667 22.5929498,28.8236667 22.1036164,28.355 C21.8869498,28.1463333 21.7102831,27.8943333 21.4709498,27.7116667 C20.6962831,27.119 19.4969498,27.3976667 18.7242831,26.8016667 C19.1936164,26.3216667 19.6929498,25.8703333 20.2189498,25.4523333 C20.5069498,25.223 20.8322831,24.8323333 20.6056164,24.543 C20.5202831,24.4336667 20.3802831,24.3863333 20.2489498,24.3443333 C17.8709498,23.587 15.4929498,22.829 13.1149498,22.0723333 C13.8356164,21.3576667 14.5729498,20.6603333 15.3256164,19.9796667 C16.0842831,19.2943333 16.8822831,18.6116667 17.8402831,18.2536667 C17.9816164,18.2016667 18.1389498,18.1563333 18.2796164,18.209 C18.3762831,18.245 18.4516164,18.323 18.5209498,18.3996667 C20.1176164,20.167 20.6489498,22.6676667 22.0889498,24.565 C22.6889498,24.019 23.2882831,23.473 23.8876164,22.927 C23.9816164,23.7356667 24.0302831,24.5496667 24.0329498,25.3636667 C24.0356164,26.2163333 24.1436164,27.0676667 24.2156164,27.9163333 C26.5482831,27.7136667 28.8562831,27.2323333 31.0756164,26.4856667 C31.2902831,27.1643333 31.8289498,27.8903333 31.7089498,28.5916667" id="Fill-73" fill="#E3E3E3"></path>
            </g>
            <rect id="Rectangle" x="0" y="0" width="202" height="244"></rect>
        </g>
    </g>
</svg>