<?xml version="1.0" encoding="UTF-8"?>
<svg width="202px" height="244px" viewBox="0 0 202 244" version="1.1" xmlns="http://www.w3.org/2000/svg" xmlns:xlink="http://www.w3.org/1999/xlink">
    <title>Group 28</title>
    <g id="Page-1" stroke="none" stroke-width="1" fill="none" fill-rule="evenodd">
        <g id="Group-28">
            <g id="Group-27" transform="translate(30.236467, 186.170444)">
                <path d="M27.2772667,4.49408934 C26.8792667,4.14475601 26.4046,3.86942268 26.0966,3.43875601 C25.9539333,3.23942268 25.8472667,3.00808934 25.6579333,2.85208934 C25.5012667,2.72475601 25.3046,2.66142268 25.1106,2.60408934 C23.0846,2.00408934 20.9572667,1.74808934 18.8459333,1.85075601 C18.5526,1.86542268 18.2559333,1.88675601 17.9739333,1.97075601 C17.6379333,2.07142268 17.3339333,2.25742268 17.0292667,2.43275601 C14.1652667,4.08542268 10.8759333,4.98742268 8.21993333,6.95675601 C7.67993333,7.35808934 7.16726667,7.80142268 6.58593333,8.13942268 C6.2446,8.33742268 5.8646,8.51208934 5.6486,8.84208934 C5.3926,9.23342268 5.4306,9.73942268 5.47793333,10.2040893 C5.57726667,11.178756 5.67593333,12.1540893 5.77526667,13.1294227 C7.13793333,13.5460893 8.5186,13.966756 9.9426,14.0314227 C10.4486,14.0540893 10.9606,14.032756 11.4566,14.1360893 C11.9952667,14.248756 12.5052667,14.5080893 13.0552667,14.532756 C13.5126,14.552756 13.9592667,14.408756 14.3899333,14.2540893 C16.7746,13.3960893 19.0192667,12.1434227 21.4706,11.498756 C21.9446,11.3740893 22.4299333,11.2714227 22.8726,11.0594227 C23.2199333,10.892756 23.5326,10.662756 23.8432667,10.4340893 C24.5026,9.94875601 25.1619333,9.46342268 25.8119333,8.96608934 C27.1086,7.97542268 29.0172667,6.02275601 27.2772667,4.49408934" id="Fill-3" fill="#F6F6F6"></path>
                <path d="M25.1054,4.98882268 C24.7560667,4.52415601 24.3140667,4.12815601 23.8140667,3.83148934 C23.6467333,3.73282268 23.4667333,3.64282268 23.2734,3.63348934 C23.0547333,3.62148934 22.8454,3.71348934 22.6454,3.80282268 C20.2460667,4.87748934 17.8474,5.95215601 15.4487333,7.02748934 C15.0327333,7.21348934 14.5927333,7.40415601 14.1387333,7.36415601 C13.6660667,7.32215601 13.2300667,7.03215601 12.7560667,7.05415601 C11.6960667,7.10148934 11.1194,8.61415601 10.0587333,8.58482268 C9.60006667,8.57148934 9.1794,8.25282268 8.72273333,8.29415601 C8.23006667,8.33815601 7.87806667,8.77548934 7.58806667,9.17548934 C7.2834,9.59548934 6.9734,10.0254893 6.82206667,10.5214893 C6.7774,10.6688227 6.74473333,10.8248227 6.65206667,10.9474893 C6.4814,11.174156 6.16673333,11.2208227 5.88673333,11.268156 C4.86806667,11.4394893 3.90806667,11.850156 2.95806667,12.2568227 C2.8314,11.3748227 2.8294,10.4628227 3.07806667,9.60748934 C3.32673333,8.75148934 3.84206667,7.95415601 4.5934,7.47548934 C4.90206667,7.27948934 5.2674,7.11482268 5.42473333,6.78415601 C5.55406667,6.51215601 5.5174,6.16615601 5.7094,5.93348934 C5.83406667,5.78282268 6.02873333,5.71415601 6.21273333,5.64682268 C7.7314,5.09548934 9.1414,4.24482268 10.3374,3.15748934 C10.6327333,2.88948934 10.9160667,2.60548934 11.2494,2.38682268 C11.7194,2.07682268 12.2667333,1.90882268 12.8054,1.74482268 C13.9234,1.40482268 15.0400667,1.06482268 16.1580667,0.724822675 C17.0827333,0.444156009 18.0147333,0.160822675 18.9760667,0.0574893419 C19.5707333,-0.0071773248 20.1700667,-0.00251065813 20.7680667,0.0028226752 C21.3000667,0.0068226752 21.8414,0.0128226752 22.3480667,0.173489342 C22.7567333,0.304156009 23.1267333,0.530822675 23.4927333,0.754156009 C23.9427333,1.03082268 24.3934,1.30615601 24.8434,1.58215601 C25.1387333,1.76282268 25.9274,2.06215601 26.0574,2.39148934 C26.1754,2.68948934 25.8180667,3.31015601 25.7114,3.58748934 C25.5294,4.06215601 25.3274,4.53082268 25.1054,4.98882268" id="Fill-5" fill="#F3F3F3"></path>
                <path d="M5.88666667,11.268156 C6.16666667,11.2208227 6.48133333,11.174156 6.652,10.9474893 C6.74466667,10.8248227 6.77733333,10.6688227 6.822,10.5214893 C6.97333333,10.0254893 7.28333333,9.59548934 7.588,9.17548934 C7.878,8.77548934 8.23,8.33815601 8.72266667,8.29415601 C9.17933333,8.25348934 9.6,8.57148934 10.0586667,8.58482268 C11.1193333,8.61482268 11.696,7.10148934 12.756,7.05415601 C13.23,7.03215601 13.666,7.32215601 14.1386667,7.36415601 C14.5933333,7.40415601 15.0326667,7.21348934 15.4486667,7.02748934 C17.8473333,5.95215601 20.2466667,4.87748934 22.6453333,3.80282268 C22.8453333,3.71348934 23.0546667,3.62148934 23.274,3.63348934 C23.4673333,3.64282268 23.6473333,3.73282268 23.814,3.83215601 C24.3146667,4.12815601 24.756,4.52415601 25.1053333,4.98882268 C25.2306667,4.72948934 25.3486667,4.46748934 25.462,4.20282268 C24.948,3.76615601 24.438,3.32482268 23.9266667,2.88615601 C23.81,2.78615601 23.69,2.68415601 23.5446667,2.63348934 C23.3593333,2.56815601 23.156,2.59415601 22.962,2.62148934 C20.428,2.97348934 17.8946667,3.32482268 15.3606667,3.67615601 C14.8593333,3.74615601 14.3546667,3.81548934 13.8486667,3.80148934 C13.282,3.78482268 12.7186667,3.66282268 12.196,3.44148934 C12.1026667,3.40148934 12.006,3.35815601 11.9046667,3.36415601 C11.7986667,3.36948934 11.704,3.42815601 11.6146667,3.48548934 C10.2453333,4.36948934 8.98333333,5.41015601 7.75933333,6.48615601 C6.408,7.67415601 5.04733333,8.98682268 4.49266667,10.6988227 C4.45333333,10.8194893 4.416,10.9468227 4.33466667,11.0448227 C4.23533333,11.1648227 4.084,11.226156 3.94,11.282156 C3.62,11.408156 3.30066667,11.5328227 2.98133333,11.6588227 C2.95333333,11.670156 2.92466667,11.6814893 2.896,11.6934893 C2.91066667,11.882156 2.93133333,12.070156 2.958,12.2568227 C3.908,11.850156 4.868,11.4394893 5.88666667,11.268156" id="Fill-7" fill="#E3E3E3"></path>
                <path d="M23.7408,3.10928934 C23.4068,3.06928934 23.0741333,3.17728934 22.7554667,3.28528934 C20.3588,4.09862268 18.0008,5.02728934 15.6928,6.06662268 C15.2428,6.26862268 14.7448,6.47995601 14.2728,6.33662268 C13.8781333,6.21728934 13.5508,5.85995601 13.1388,5.87662268 C12.9041333,5.88662268 12.6941333,6.01862268 12.4974667,6.14728934 C11.6814667,6.67795601 10.8661333,7.20862268 10.0501333,7.73928934 C9.9188,7.82462268 9.78346667,7.91195601 9.63013333,7.94328934 C9.4748,7.97528934 9.31413333,7.94728934 9.15813333,7.91928934 C8.82946667,7.85995601 8.50013333,7.80062268 8.17146667,7.74128934 C8.06346667,7.72262268 7.9508,7.70328934 7.84746667,7.73862268 C7.73146667,7.77795601 7.6488,7.87795601 7.5728,7.97328934 C6.92213333,8.78462268 6.27146667,9.59728934 5.7028,10.467956 C6.1248,10.3366227 6.55146667,10.221956 6.98146667,10.123956 C7.14546667,9.78928934 7.36746667,9.47995601 7.58813333,9.17595601 C7.87813333,8.77528934 8.22946667,8.33862268 8.7228,8.29395601 C9.17946667,8.25328934 9.60013333,8.57128934 10.0588,8.58462268 C11.1194667,8.61462268 11.6961333,7.10128934 12.7554667,7.05395601 C13.2301333,7.03262268 13.6661333,7.32195601 14.1388,7.36395601 C14.5928,7.40395601 15.0321333,7.21328934 15.4488,7.02728934 C17.8474667,5.95262268 20.2461333,4.87728934 22.6454667,3.80262268 C22.8454667,3.71328934 23.0548,3.62195601 23.2734667,3.63328934 C23.4668,3.64328934 23.6468,3.73328934 23.8134667,3.83195601 C24.3141333,4.12795601 24.7561333,4.52395601 25.1054667,4.98862268 C25.2674667,4.65395601 25.4181333,4.31462268 25.5594667,3.97062268 C25.1934667,3.73862268 24.7208,3.52595601 24.5128,3.40928934 C24.2701333,3.27262268 24.0168,3.14195601 23.7408,3.10928934" id="Fill-9" fill="#C5C3C3"></path>
                <path d="M0.0868666667,13.8000227 C0.0482,14.009356 0.111533333,14.223356 0.1742,14.4266893 C0.527533333,15.5726893 0.880866667,16.7186893 1.2342,17.8646893 C1.2702,17.981356 1.3082,18.1020227 1.38753333,18.195356 C1.62953333,18.4780227 2.0782,18.363356 2.4482,18.4026893 C3.22886667,18.485356 3.69286667,19.291356 4.33286667,19.7460227 C3.72553333,20.0826893 3.63153333,20.901356 3.27886667,21.499356 C3.13086667,21.749356 2.93353333,21.9646893 2.76753333,22.2026893 C2.5262,22.5500227 2.35486667,22.945356 2.2662,23.3586893 C2.2262,23.543356 2.2042,23.7386893 2.2582,23.9200227 C2.30753333,24.085356 2.4162,24.225356 2.5222,24.3606893 C3.54753333,25.667356 4.5722,26.9740227 5.59753333,28.2806893 C5.69086667,28.399356 5.7882,28.5220227 5.9202,28.595356 C6.3482,28.8306893 6.85286667,28.451356 7.14686667,28.0626893 C7.45286667,27.6580227 7.70153333,27.2140227 7.94886667,26.7720227 C8.63686667,25.541356 9.3242,24.3120227 10.0122,23.0820227 C10.3215333,22.5286893 10.6408667,21.8880227 10.4362,21.287356 C10.2675333,20.7920227 9.79153333,20.481356 9.36686667,20.175356 C7.97086667,19.1700227 6.84553333,17.8426893 5.6342,16.6200227 C4.42353333,15.397356 3.06686667,14.2420227 1.42886667,13.7160227 C1.02153333,13.585356 0.2182,13.087356 0.0868666667,13.8000227" id="Fill-11" fill="#C5C3C4"></path>
                <path d="M8.69266667,8.60148934 C8.29466667,9.12815601 7.83533333,9.61748934 7.28133333,9.97682268 C6.77266667,10.3074893 6.19866667,10.5194893 5.63,10.7288227 L1.41333333,12.2834893 C1.14933333,12.3808227 0.881333333,12.4794893 0.649333333,12.6394893 C0.293333333,12.884156 0.0326666667,13.280156 -5.32907052e-15,13.710156 C0.831333333,14.0568227 1.48333333,14.722156 2.09066667,15.3874893 C3.00733333,16.3914893 3.88133333,17.4348227 4.71,18.5128227 C4.994,18.8834893 5.27466667,19.2594893 5.60533333,19.5888227 C5.686,19.6694893 5.78066667,19.752156 5.89533333,19.7541805 C5.98866667,19.7554893 6.07333333,19.702156 6.152,19.6508227 C7.406,18.8288227 8.66,18.006156 9.91466667,17.1848227 C10.1446667,17.0334893 10.3753333,16.882156 10.58,16.6974893 C10.8113333,16.488156 11.004,16.240156 11.198,15.9954893 C11.97,15.0188227 12.808,14.0294893 13.206,12.8294893 C13.2986667,12.5488227 13.398,12.3394893 13.2473333,12.1034893 C13.0793333,11.840156 12.648,11.6008227 12.4053333,11.402156 C11.842,10.9414893 11.27,10.4908227 10.69,10.0508227 C10.034,9.55415601 9.36866667,9.07015601 8.69266667,8.60148934" id="Fill-13" fill="#E3E3E3"></path>
                <path d="M26.9556667,31.6822227 C27.2616667,31.9962227 27.6396667,32.3742227 27.5216667,32.7962227 C27.477,32.9548893 27.3656667,33.085556 27.2563333,33.209556 C25.8296667,34.8248893 24.1923333,36.253556 22.3996667,37.449556 C22.081,37.6622227 21.745,37.8722227 21.3663333,37.927556 C21.0416667,37.9748893 20.7123333,37.9048893 20.3956667,37.8202227 C18.263,37.2508893 16.3336667,36.0242227 14.167,35.6042227 C15.591,33.269556 16.651,30.6988893 18.359,28.563556 C19.219,27.487556 20.235,26.5368893 21.365,25.749556 C21.5863333,25.5948893 21.8296667,25.4422227 22.099,25.4442032 C22.287,25.4462227 22.4656667,25.5248893 22.633,25.6102227 C23.7363333,26.1702227 24.637,27.1082227 25.1816667,28.2168893 C25.7783333,29.4308893 25.9643333,30.6668893 26.9556667,31.6822227" id="Fill-15" fill="#E3E3E3"></path>
                <path d="M20.177,30.8560227 C20.1596667,31.0866893 20.141,31.321356 20.053,31.535356 C19.963,31.7540227 19.8063333,31.9360227 19.6516667,32.1146893 C18.441,33.5120227 17.231,34.909356 16.021,36.3066893 C15.8436667,36.511356 15.663,36.7200227 15.4376667,36.8706893 C15.041,37.137356 14.5476667,37.2046893 14.073,37.2526893 C13.9896667,37.2606893 13.9003333,37.267356 13.8283333,37.225356 C13.7563333,37.1826893 13.7183333,37.101356 13.685,37.0246893 C13.5356667,36.6820227 13.3856667,36.3406893 13.2363333,35.9980227 C13.1883333,35.8866893 13.1383333,35.771356 13.1363122,35.649356 C13.135,35.5086893 13.197,35.3746893 13.2583333,35.2480227 C13.669,34.399356 14.111,33.5660227 14.5523333,32.733356 C15.0723333,31.753356 15.631,30.729356 16.565,30.1286893 C17.3836667,29.6020227 18.3863333,29.4700227 19.353,29.3506893 C19.6636667,29.3126893 20.1303333,29.2746893 20.263,29.621356 C20.3756667,29.917356 20.201,30.5400227 20.177,30.8560227" id="Fill-17" fill="#CAC2C4"></path>
                <path d="M22.3967333,28.061756 C21.9500667,28.613756 21.5027333,29.1664227 21.0554,29.7184227 C19.0040667,32.2530893 16.9420667,34.7990893 14.5220667,36.985756 C14.3714,37.121756 14.2120667,37.2604227 14.0154,37.3124227 C13.6607333,37.4064227 13.3067333,37.1944227 12.9934,37.0050893 C11.7240667,36.2384227 10.3280667,35.6824227 8.8794,35.3670893 C8.7494,35.3390893 8.61206667,35.3090893 8.5134,35.219756 C8.38073333,35.099756 8.35273333,34.9044227 8.33406667,34.7250893 C8.14406667,32.925756 8.0354,31.117756 8.00806667,29.3090893 C8.0054,29.1044227 8.00473333,28.8944227 8.0774,28.703756 C8.24873333,28.257756 8.7514,28.0584227 9.17673333,27.841756 C9.82273333,27.5130893 10.3854,27.0470893 10.9634,26.609756 C13.5580667,24.6470893 16.5514,23.2144227 19.7080667,22.4250893 C20.9107333,22.1244227 22.2447333,21.9304227 23.3414,22.5110893 C23.5767333,22.6350893 23.7994,22.797756 23.9474,23.0204227 C24.1427333,23.3130893 24.1907333,23.6764227 24.2560667,24.0224227 C24.3394,24.4664227 24.4607333,24.9030893 24.6160667,25.3264227 C24.8207333,25.8864227 24.6414,25.8450893 24.1974,26.177756 C23.4980667,26.7010893 22.9420667,27.3870893 22.3967333,28.061756" id="Fill-19" fill="#F1F1F1"></path>
                <path d="M20.7238667,22.9640893 C20.6725333,23.454756 20.2525333,23.8140893 19.8645333,24.1194227 C17.9832,25.5980893 16.1018667,27.0774227 14.2205333,28.5560893 C13.9132,28.7980893 13.5985333,29.0434227 13.2292,29.172756 C12.8625333,29.3020893 12.4658667,29.3074227 12.0778667,29.3100893 C9.9392,29.3220893 7.79986667,29.2734227 5.66386667,29.1640893 C5.49586667,28.6380893 6.0452,28.1700893 6.18386667,27.6354227 C6.27586667,27.2820893 6.18186667,26.908756 6.19786667,26.5440893 C6.27453333,24.8420893 8.60653333,23.896756 8.65386667,22.1940893 C8.6632,21.8514227 8.5732,21.5080893 8.61186667,21.1680893 C8.6512,20.8180893 8.82186667,20.4994227 9.0012,20.196756 C10.4932,17.670756 12.7612,15.6374227 15.3558667,14.268756 C15.7125333,14.080756 16.0825333,13.9020893 16.4805333,13.838756 C16.8792,13.7760893 17.3145333,13.8420893 17.6245333,14.1000893 C17.9572,14.376756 18.0925333,14.8174227 18.2185333,15.230756 C18.6392,16.6120893 19.1285333,17.9720893 19.6852,19.304756 C19.9478667,19.932756 20.3945333,20.6074227 20.5612,21.2620893 C20.6298667,21.530756 20.5578667,21.7394227 20.5852,22.0220893 C20.6158667,22.3400893 20.7578667,22.6380893 20.7238667,22.9640893" id="Fill-21" fill="#E3E3E3"></path>
                <path d="M5.66366667,29.163956 C5.94833333,29.177956 6.23233333,29.1912893 6.517,29.2046227 C8.509,28.9872893 10.501,28.7632893 12.473,28.409956 C12.5323333,28.3992893 12.595,28.3866227 12.6396667,28.3466227 C12.6783333,28.3126227 12.699,28.2612893 12.7176667,28.2126227 C12.8096667,27.9726227 13.3876667,26.8926227 13.2356667,26.6892893 C13.0843333,26.4866227 11.9076667,26.7012893 11.6516667,26.713956 C11.5963333,26.2726227 11.5403333,25.8312893 11.485,25.3892893 C11.1983333,25.9232893 10.911,26.455956 10.6236667,26.989956 C10.5736667,27.0832893 10.5203333,27.179956 10.4323333,27.2386227 C10.3383333,27.3026227 10.219,27.3132893 10.1056667,27.3212893 C8.79966667,27.417956 7.49433333,27.513956 6.189,27.6106227 C6.187,27.6192893 6.18633333,27.6272893 6.18433333,27.6352893 C6.045,28.169956 5.49566667,28.637956 5.66366667,29.163956" id="Fill-23" fill="#F1F1F1"></path>
                <path d="M16.7473333,9.79355601 C13.136,11.4448893 9.52533333,13.0948893 5.914,14.745556 C5.64133333,14.869556 5.31866667,15.0868893 5.384,15.379556 C5.414,15.5162227 5.52466667,15.6168893 5.62933333,15.7088893 C6.18066667,16.1922227 6.73266667,16.6748893 7.284,17.1588893 C8.04666667,17.1642227 8.81,17.169556 9.57266667,17.175556 C9.978,17.1788893 10.3886667,17.1808893 10.7813333,17.079556 C11.1153333,16.993556 11.426,16.8348893 11.7293333,16.6688893 C12.4033333,16.3022227 13.0586667,15.8988893 13.6913333,15.463556 C14.6293333,14.8168893 15.5206667,14.0982227 16.5126667,13.5382227 C17.5773333,12.937556 18.816,12.4642227 19.44,11.413556 C19.5946667,11.1522227 19.704,10.8662227 19.864,10.6088893 C20.0133333,10.3682227 20.2053333,10.157556 20.3613333,9.92222268 C20.4966667,9.71955601 21.0486667,8.82022268 20.916,8.57822268 C20.776,8.32155601 19.8313333,8.63222268 19.5846667,8.69555601 C18.6,8.94822268 17.6693333,9.37222268 16.7473333,9.79355601" id="Fill-25" fill="#C5C3C4"></path>
                <path d="M16.1695333,12.7720227 C12.7388667,13.4566893 9.30753333,14.1426893 5.89486667,14.9146893 C5.6902,14.961356 5.4662,15.0200227 5.34486667,15.1920227 C5.25086667,15.3266893 5.2402,15.501356 5.2342,15.665356 C5.1982,16.5546893 5.16286667,17.4446893 5.12753333,18.3340227 C5.12086667,18.499356 5.1142,18.6666893 5.1522,18.827356 C5.20153333,19.0340227 5.3202,19.215356 5.4362,19.3920227 C5.7702,19.8980227 6.1042,20.4046893 6.43753333,20.911356 C6.56553333,21.1046893 6.69753333,21.303356 6.88953333,21.4340227 C7.06486667,21.553356 7.27553333,21.6060227 7.48153333,21.655356 C8.90086667,21.9926893 10.3388667,22.2500227 11.7875333,22.425356 C13.0008667,22.5726893 14.2722,22.6546893 15.4055333,22.199356 C15.5902,22.125356 15.7782,22.0300227 15.8875333,21.8640227 C15.9822,21.7206893 16.0055333,21.543356 16.0275333,21.373356 C16.2008667,19.983356 16.3748667,18.593356 16.5488667,17.2040227 C16.6275333,16.573356 16.7068667,15.9400227 16.8768667,15.327356 C17.0188667,14.8140227 17.2235333,14.319356 17.4275333,13.8266893 C17.5595333,13.5080227 18.1055333,12.6360227 17.7528667,12.463356 C17.5208667,12.3506893 16.4295333,12.6980227 16.1695333,12.7720227" id="Fill-27" fill="#F1F1F1"></path>
                <path d="M27.3853333,31.321556 C27.646,31.1022227 27.774,30.7668893 27.9766667,30.4928893 C28.4666667,29.8282227 29.3286667,29.5842227 30.0473333,29.177556 C31.54,28.3342227 32.4626667,26.7402227 33.8673333,25.7568893 C34.2213333,25.5088893 34.6113333,25.295556 34.8833333,24.959556 C35.0993333,24.6928893 35.2266667,24.3662227 35.3313333,24.039556 C35.724,22.8188893 35.854,21.5142227 35.7086667,20.2402227 C35.636,19.607556 35.5133333,18.9048893 35.8793333,18.3842227 C36.0566667,18.1308893 36.3466667,17.9248893 36.3733333,17.6168893 C36.3846667,17.485556 36.344,17.3568893 36.304,17.231556 C36.048,16.4282227 35.792,15.625556 35.536,14.8228893 C35.4706667,14.6182227 35.3966667,14.4002227 35.2253333,14.271556 C34.9966667,14.097556 34.6766667,14.1402227 34.394,14.1922227 C33.014,14.4482227 31.6446667,14.759556 30.2893333,15.1248893 C30.438,14.2108893 30.586,13.279556 30.452,12.3628893 C30.318,11.4462227 29.8546667,10.5302227 29.046,10.079556 C28.8286667,10.3768893 28.6026667,10.667556 28.368,10.9508893 L28.7233333,12.9142227 L27.202,14.6522227 L24.2433333,16.763556 L23.072,17.7648893 C22.918,18.3048893 22.7873333,18.8522227 22.6573333,19.3982227 C22.2593333,21.079556 21.86,22.759556 21.462,24.4402227 C21.432,24.5642227 21.4026667,24.6928893 21.42,24.8202227 C21.4433333,24.9888893 21.5466667,25.1348893 21.6473333,25.2728893 C22.8033333,26.8648893 23.96,28.4582227 25.1166667,30.0508893 C25.5026667,30.581556 26.6013333,31.9808893 27.3853333,31.321556" id="Fill-29" fill="#F9F9F9"></path>
                <path d="M25.3700667,21.2050227 C25.4500667,21.2710227 25.5374,21.3390227 25.6407333,21.3430227 C25.7527333,21.3470227 25.8514,21.274356 25.9394,21.2056893 C26.3514,20.8836893 26.7634,20.5610227 27.1754,20.2396893 C27.3174,20.128356 27.4620667,20.016356 27.6294,19.950356 C27.7587333,19.900356 27.8987333,19.8796893 28.0367333,19.8616893 C28.4614,19.808356 28.8894,19.7830227 29.3174,19.786356 C29.4627333,19.7870227 29.6100667,19.7916893 29.7494,19.8336893 C30.0220667,19.916356 30.2307333,20.1316893 30.4774,20.2736893 C30.8874,20.5096893 31.3814,20.5310227 31.8454,20.624356 C32.3094,20.7176893 32.8054,20.9296893 32.9887333,21.366356 C32.4640667,21.2536893 31.8980667,21.3496893 31.4387333,21.6270227 C31.1920667,21.7756893 30.9514,21.9830227 30.6634,21.976356 C30.4120667,21.9710227 30.1967333,21.802356 29.9594,21.7190227 C29.5934,21.590356 29.1900667,21.670356 28.8147333,21.7656893 C27.7134,22.044356 26.6407333,22.4450227 25.5200667,22.632356 C25.4160667,22.6496893 25.3074,22.664356 25.2074,22.6316893 C25.0960667,22.5950227 25.0120667,22.5036893 24.9340667,22.4156893 C24.5040667,21.9370227 24.0747333,21.4570227 23.6454,20.9770227 C23.5874,20.9130227 23.5280667,20.846356 23.4987333,20.7650227 C23.4000667,20.492356 23.6500667,20.1390227 23.7080667,19.876356 C24.2987333,20.1670227 24.8554,20.7850227 25.3700667,21.2050227" id="Fill-31" fill="#F1F1F1"></path>
                <path d="M25.4449333,6.41075601 C24.8682667,6.60542268 24.3369333,6.91275601 23.7816,7.16208934 C22.3102667,7.82142268 20.6756,8.06875601 19.2262667,8.77675601 C18.5869333,9.08942268 17.9929333,9.48675601 17.4016,9.88342268 C16.5689333,10.440756 15.7362667,10.998756 14.9042667,11.5560893 C15.5422667,12.1294227 16.1916,12.7180893 16.6056,13.468756 C17.0536,14.280756 17.1929333,15.2214227 17.3242667,16.138756 C17.5929333,18.0080893 17.8616,19.876756 18.1296,21.7460893 C18.1462667,21.860756 18.1682667,21.9860893 18.2569333,22.0600893 C18.3276,22.118756 18.4249333,22.1314227 18.5156,22.1414227 C19.1929333,22.2174227 19.8702667,22.292756 20.5469333,22.368756 C20.8936,22.4074227 21.2789333,22.4360893 21.5556,22.2234227 C21.8142667,22.0240893 21.8949333,21.674756 21.9589333,21.3540893 C22.1016,20.630756 22.2442667,19.9074227 22.3876,19.184756 C22.4749333,18.7434227 22.5649333,18.2940893 22.7816,17.8994227 C23.0369333,17.436756 23.4489333,17.082756 23.8669333,16.7580893 C24.5482667,16.2300893 25.2689333,15.752756 26.0216,15.3314227 C26.6642667,14.9720893 27.3382667,14.646756 27.8822667,14.1494227 C28.1322667,13.9220893 28.3569333,13.6480893 28.4456,13.3214227 C28.5156,13.0674227 28.4989333,12.7980893 28.4809333,12.5354227 C28.4476,12.034756 28.4142667,11.5340893 28.3809333,11.0334227 C28.3062667,9.91608934 28.2282667,8.77942268 27.8229333,7.73542268 C27.6696,7.34142268 27.4289333,6.66475601 27.0942667,6.38275601 C26.6909333,6.04342268 25.8862667,6.26208934 25.4449333,6.41075601" id="Fill-33" fill="#F1F1F1"></path>
                <path d="M26.4657333,10.745356 C25.2117333,10.7486893 23.9570667,10.7526893 22.7030667,10.7560227 C22.5857333,10.7566893 22.4657333,10.757356 22.3537333,10.7926893 C22.2464,10.827356 22.1524,10.8920227 22.0604,10.955356 L20.1410667,12.2820227 C21.3204,11.9886893 22.5130667,11.7500227 23.7150667,11.5660227 C23.9404,11.5320227 24.1690667,11.499356 24.3964,11.523356 C24.6290667,11.547356 24.8517333,11.6300227 25.0717333,11.7120227 C25.5537333,11.893356 26.0357333,12.073356 26.5184,12.2540227 C26.8850667,12.391356 27.4550667,12.733356 27.8377333,12.7006893 C27.4884,12.0146893 26.9130667,11.375356 26.4657333,10.745356" id="Fill-35" fill="#E3E3E3"></path>
                <path d="M27.8980667,5.39902268 C28.3367333,5.42968934 28.7094,5.75768934 28.9154,6.14568934 C29.1220667,6.53302268 29.1907333,6.97702268 29.2574,7.41168934 C29.4320667,8.56368934 29.6080667,9.72302268 29.5780667,10.888356 C29.5587333,11.628356 29.4560667,12.3630227 29.3240667,13.0916893 C29.2027333,13.758356 29.0447333,14.4456893 28.6274,14.9796893 C28.4414,15.2170227 28.2094,15.4170227 28.0507333,15.6736893 C27.5394,16.5036893 27.9374,17.6696893 27.4220667,18.4976893 C26.8967333,18.0796893 26.3980667,17.628356 25.9287333,17.1470227 C25.6720667,16.8836893 25.2507333,16.5990227 24.9854,16.8536893 C24.8854,16.9490227 24.8527333,17.0930227 24.8240667,17.2276893 L23.2800667,24.5536893 C22.4967333,23.9090227 21.7287333,23.246356 20.9760667,22.5650227 C20.2174,21.8790227 19.4587333,21.154356 19.0067333,20.236356 C18.9400667,20.1016893 18.8794,19.9496893 18.9174,19.8036893 C18.9434,19.7036893 19.0134,19.6216893 19.0827333,19.5450227 C20.6807333,17.778356 23.1154,16.998356 24.8580667,15.3750227 C24.2547333,14.8330227 23.6514,14.292356 23.0480667,13.750356 C23.8427333,13.5756893 24.6480667,13.4450227 25.4574,13.3610227 C26.3054,13.2730227 27.1414,13.0796893 27.9794,12.922356 C27.5427333,10.622356 26.8314,8.37368934 25.8660667,6.24102268 C26.5200667,5.95902268 27.1880667,5.35035601 27.8980667,5.39902268" id="Fill-37" fill="#E3E3E3"></path>
            </g>
            <rect id="Rectangle" x="0" y="0" width="202" height="244"></rect>
        </g>
    </g>
</svg>