<svg width="38" height="37" viewBox="0 0 38 37" fill="none" xmlns="http://www.w3.org/2000/svg">
  <path fill="#F9F9F9" d="M30.6052 7.69C30.3652 7.45 30.0152 7.35 29.7252 7.18C29.0152 6.75 28.6952 5.92 28.2252 5.24C27.2452 3.83 25.5752 3.06 24.4652 1.75C24.1852 1.42 23.9352 1.05 23.5752 0.81C23.2852 0.62 22.9552 0.52 22.6152 0.45C21.3652 0.17 20.0552 0.16 18.7952 0.42C18.1752 0.55 17.4852 0.74 16.9352 0.42C16.6752 0.27 16.4452 0 16.1352 0C16.0052 0 15.8752 0.05 15.7552 0.1C14.9752 0.43 14.2052 0.76 13.4252 1.09C13.2252 1.17 13.0152 1.27 12.9052 1.45C12.7552 1.69 12.8252 2.01 12.9052 2.29C13.2852 3.64 13.7252 4.98 14.2152 6.29C13.2952 6.23 12.3452 6.16 11.4452 6.38C10.5452 6.6 9.67519 7.14 9.29519 7.99C9.61519 8.18 9.92519 8.38 10.2252 8.58L12.1452 8.05L14.0152 9.41L16.3852 12.16L17.4852 13.23C18.0352 13.33 18.5952 13.41 19.1552 13.49C20.8652 13.73 22.5752 13.98 24.2852 14.22C24.4152 14.24 24.5452 14.26 24.6652 14.22C24.8352 14.18 24.9652 14.06 25.0952 13.95C26.5752 12.65 28.0552 11.35 29.5352 10.06C30.0252 9.63 31.3252 8.4 30.5952 7.68M3.89519 10.26C3.58519 10.69 3.35519 11.19 2.95519 11.53C2.76519 11.69 2.54519 11.82 2.41519 12.02C2.30519 12.19 2.25519 12.39 2.21519 12.59C1.80519 14.66 1.74519 16.81 2.03519 18.9C2.07519 19.19 2.12519 19.48 2.23519 19.76C2.36519 20.09 2.57519 20.37 2.78519 20.66C4.69519 23.36 5.89519 26.55 8.09519 29.02C8.54519 29.52 9.03519 29.99 9.42519 30.54C9.65519 30.86 9.86519 31.22 10.2152 31.41C10.6252 31.63 11.1252 31.54 11.5852 31.45C12.5452 31.26 13.5052 31.07 14.4752 30.89C14.7652 29.5 15.0552 28.08 14.9952 26.66C14.9752 26.15 14.9052 25.65 14.9652 25.14C15.0252 24.59 15.2352 24.06 15.2152 23.51C15.1952 23.05 15.0052 22.62 14.8152 22.21C13.7452 19.91 12.2852 17.79 11.4252 15.41C11.2552 14.95 11.1152 14.48 10.8552 14.05C10.6552 13.72 10.3952 13.43 10.1452 13.14C9.60519 12.53 9.05519 11.92 8.50519 11.31C7.39519 10.11 5.28519 8.39 3.91519 10.26"/>
  <path fill="#F1F1F1" d="M37.5852 21.5C36.9352 22.83 36.5152 24.27 36.3352 25.75C36.3152 25.88 36.3052 26.02 36.2252 26.13C36.1152 26.27 35.9252 26.32 35.7452 26.35C33.9752 26.7 32.1852 26.98 30.3852 27.17C30.3652 27.17 30.3452 27.17 30.3252 27.17C30.3552 27.65 30.3852 28.12 30.4052 28.6C30.4052 28.62 30.4052 28.64 30.4152 28.66C30.4252 28.94 30.4452 29.23 30.4552 29.51C30.4552 29.51 30.3752 29.53 30.3352 29.54C30.3052 29.54 30.2852 29.56 30.2552 29.56C29.8152 29.6 29.3552 29.21 28.8852 29.13C28.8852 29.13 28.8852 29.13 28.8752 29.13C28.5152 29.07 28.1552 29.2 27.7952 29.22C26.0952 29.3 24.9352 27.06 23.2352 27.17C23.1352 27.17 23.0352 27.2 22.9352 27.22C22.8952 27.61 22.8552 28 22.8052 28.39C22.7752 28.6 22.7452 28.81 22.6352 29C22.5252 29.2 22.3352 29.35 22.1552 29.5C21.6952 29.87 21.2252 30.24 20.7652 30.61C20.5052 30.9 20.2152 31.17 19.9252 31.44C18.9252 32.36 17.9652 33.33 17.0552 34.34C16.4452 35.01 15.8452 35.72 15.5752 36.58C15.1452 36.58 14.7252 36.36 14.4452 36.03C14.2652 35.81 14.1452 35.56 14.0252 35.3C13.7952 34.82 13.5652 34.35 13.3452 33.87C13.3352 33.87 13.3152 33.87 13.3052 33.87C12.6152 33.99 11.9052 34.02 11.2152 33.88C10.3452 33.71 9.49523 33.27 8.95523 32.57C8.73523 32.28 8.53523 31.93 8.19523 31.81C7.91523 31.71 7.57523 31.77 7.32523 31.6C7.16523 31.49 7.07523 31.3 6.99523 31.12C6.30523 29.66 5.32523 28.33 4.13523 27.24C3.84523 26.97 3.53523 26.71 3.28523 26.4C2.93523 25.96 2.71523 25.43 2.50523 24.91C2.06523 23.83 1.62523 22.75 1.18523 21.67C0.815229 20.77 0.455229 19.87 0.265229 18.92C0.145229 18.33 0.0952292 17.74 0.0452292 17.14C0.00522915 16.61 -0.0447708 16.07 0.0752292 15.55C0.165229 15.13 0.355229 14.74 0.545229 14.36C0.775229 13.89 1.01523 13.41 1.24523 12.94C1.39523 12.63 1.62523 11.82 1.93523 11.66C2.22523 11.52 2.87523 11.81 3.15523 11.9C3.36523 11.96 3.57523 12.04 3.78523 12.11C3.78523 12.11 3.78523 12.11 3.78523 12.1C4.05523 12.19 4.32523 12.28 4.58523 12.38C4.58523 12.38 4.58523 12.38 4.59523 12.38C4.16523 12.77 3.81523 13.25 3.56523 13.77C3.48523 13.94 3.42523 14.11 3.42523 14.29C3.42523 14.3 3.42523 14.31 3.42523 14.32C3.42523 14.54 3.54523 14.74 3.65523 14.93C4.94523 17.22 6.23523 19.51 7.52523 21.8C7.74523 22.2 7.97523 22.62 7.98523 23.07C7.98523 23.54 7.73523 24.01 7.80523 24.48C7.94523 25.53 9.50523 25.97 9.57523 27.03C9.60523 27.49 9.32523 27.94 9.40523 28.39C9.49523 28.88 9.96523 29.19 10.3852 29.44C10.5452 29.53 10.7052 29.62 10.8652 29.71C11.0352 29.8 11.2152 29.89 11.4052 29.96C11.3452 29.86 11.2852 29.76 11.2152 29.67C10.8052 29.15 10.2752 28.74 9.71523 28.39C10.1252 27.67 10.5452 26.97 10.9752 26.27C11.3652 25.65 11.7552 25.04 12.1652 24.44C12.3452 24.18 12.5352 23.73 12.7852 23.54C13.0052 23.37 13.2252 23.45 13.5152 23.52C13.7252 23.57 13.9252 23.65 14.1252 23.72C13.8152 22.69 13.5052 21.65 13.1952 20.62C12.7852 21.02 12.4352 21.49 12.0852 21.95L10.1852 19.62C9.73523 19.07 9.28523 18.51 8.91523 17.9C8.07523 16.52 7.68523 14.92 6.88523 13.51C6.58523 12.98 6.23523 12.48 5.98523 11.92C5.93523 11.8 5.87523 11.65 5.82523 11.49C5.81523 11.49 5.79523 11.5 5.78523 11.51C5.44523 10.88 4.77523 10.27 4.76523 9.56003C4.75523 9.12003 5.04523 8.72003 5.41523 8.48003C5.78523 8.24003 6.21523 8.13003 6.64523 8.02003C7.77523 7.74003 8.91523 7.46003 10.0752 7.38003C10.8152 7.33003 11.5552 7.37003 12.2952 7.43003C12.9752 7.49003 13.6652 7.58003 14.2352 7.95003C14.4852 8.11003 14.7152 8.33003 14.9752 8.46003C15.8452 8.89003 16.9752 8.39003 17.8452 8.83003C17.4752 9.39003 17.0752 9.93003 16.6352 10.44C16.3952 10.72 16.1552 11.16 16.4252 11.41C16.5252 11.5 16.6752 11.52 16.8152 11.54C17.8152 11.66 18.8252 11.77 19.8252 11.89C20.0952 11.45 20.4652 11.03 20.7252 10.63C20.7852 10.54 20.8452 10.45 20.8352 10.35C20.8352 10.24 20.7452 10.15 20.6752 10.07C20.3152 9.69003 19.9552 9.31003 19.5952 8.93003C19.4752 8.80003 19.3452 8.67003 19.2652 8.50003C19.2052 8.38003 19.1652 8.24003 19.1352 8.10003C19.0452 7.68003 18.9752 7.26003 18.9452 6.83003C18.9352 6.68003 18.9252 6.54003 18.9452 6.40003C19.0052 6.12003 19.1952 5.89003 19.3152 5.63003C19.5152 5.20003 19.4852 4.71003 19.5352 4.24003C19.5852 3.77003 19.7552 3.26003 20.1652 3.03003C20.1052 3.56003 20.2452 4.12003 20.5652 4.55003C20.7352 4.78003 20.9652 5.00003 20.9852 5.29003C21.0052 5.54003 20.8552 5.77003 20.7952 6.01003C20.7052 6.39003 20.8152 6.78003 20.9452 7.15003C21.3252 8.22003 21.8252 9.25003 22.1152 10.35C22.1452 10.45 22.1652 10.56 22.1452 10.66C22.1152 10.77 22.0352 10.87 21.9552 10.95C21.6252 11.31 21.2952 11.66 20.9652 12.02C22.0552 12.15 23.1452 12.27 24.2352 12.4C23.8552 12.96 23.4552 13.5 23.0552 14.05C23.4652 14.11 23.8752 14.17 24.2852 14.22C24.4152 14.24 24.5452 14.26 24.6652 14.22C24.8352 14.18 24.9652 14.06 25.0952 13.95C25.7052 13.41 26.3152 12.88 26.9252 12.34C26.6352 12.12 26.3452 11.9 26.0852 11.65C26.5252 11.06 27.0752 10.55 27.6952 10.16C28.8452 9.45003 30.0652 9.16003 30.9852 8.08003C31.2652 7.75003 31.6152 7.33003 32.0452 7.41003C32.2052 7.44003 32.3452 7.54003 32.4852 7.64003C34.2252 8.91003 35.7952 10.41 37.1552 12.09C37.3952 12.39 37.6352 12.7 37.7252 13.08C37.8052 13.4 37.7652 13.73 37.7052 14.06C37.4152 15.76 36.7152 17.38 36.3152 19.05C36.6852 19.36 37.0552 19.66 37.4052 19.99C37.5552 20.13 37.7052 20.27 37.7752 20.46C37.9052 20.8 37.7252 21.18 37.5652 21.51L37.5852 21.5Z"/>
  <path fill="#E3E3E3" d="M26.0952 11.6601C26.5352 11.0701 27.0852 10.5601 27.7052 10.1701C28.8552 9.46006 30.0752 9.17006 30.9952 8.09006C31.2752 7.76006 31.6252 7.34006 32.0552 7.42006C32.2152 7.45006 32.3552 7.55006 32.4952 7.65006C34.2352 8.92006 35.8052 10.4201 37.1652 12.1001C37.4052 12.4001 37.6452 12.7101 37.7352 13.0901C37.8152 13.4101 37.7752 13.7401 37.7152 14.0701C37.4252 15.7701 36.7252 17.3901 36.3252 19.0601C34.2052 17.2701 31.8952 15.7001 29.5852 14.1601C28.9952 13.7701 28.4052 13.3701 27.8152 12.9801C27.2152 12.5801 26.6252 12.1701 26.0952 11.6801V11.6601ZM4.74523 9.56006C4.76523 10.2701 5.42523 10.8801 5.76523 11.5101C7.80523 10.3501 9.97523 9.44006 12.2252 8.79006C12.4552 9.61006 12.7252 10.4201 12.8952 11.2601C13.0552 12.0601 13.2552 12.8501 13.5052 13.6201L14.9552 11.6701C16.7352 13.2601 17.7352 15.6101 19.6352 17.0401C19.7152 17.1001 19.8052 17.1601 19.9052 17.1801C20.0552 17.2001 20.1952 17.1301 20.3252 17.0501C21.1952 16.5201 21.8452 15.6901 22.4652 14.8801C23.0752 14.0701 23.6652 13.2401 24.2352 12.4001C21.7552 12.1101 19.2752 11.8201 16.7952 11.5301C16.6552 11.5101 16.5152 11.4901 16.4052 11.4001C16.1252 11.1601 16.3752 10.7101 16.6152 10.4301C17.0552 9.92006 17.4552 9.38006 17.8252 8.82006C16.9552 8.38006 15.8252 8.89006 14.9552 8.45006C14.6852 8.32006 14.4652 8.10006 14.2152 7.94006C13.6452 7.57006 12.9452 7.48006 12.2752 7.42006C11.5352 7.36006 10.7952 7.32006 10.0552 7.37006C8.89523 7.45006 7.75523 7.73006 6.62523 8.01006C6.19523 8.12006 5.76523 8.22006 5.39523 8.47006C5.02523 8.71006 4.73523 9.11006 4.74523 9.55006M10.1952 10.5001C10.7852 10.0001 11.3652 9.37006 12.0152 8.95006C12.0852 9.33006 11.7952 9.93006 11.6952 10.3101C11.5552 10.8101 11.4252 11.3001 11.2852 11.8001C11.2252 12.0301 11.1652 12.2601 11.1552 12.4901C11.1552 12.7201 11.2052 12.9401 11.2652 13.1601C11.5552 14.3401 11.9052 15.5101 12.3052 16.6501C11.8052 16.0501 11.3052 15.4601 10.8052 14.8601C10.7352 14.7701 10.6552 14.6901 10.6152 14.5801C10.5652 14.4701 10.5552 14.3501 10.5452 14.2401C10.4252 12.9901 10.3052 11.7401 10.1852 10.4901M28.8452 29.1401C28.6252 27.8501 28.4152 26.5601 28.1952 25.2701C28.1752 25.1601 28.1552 25.0401 28.0852 24.9501C28.0152 24.8701 27.9152 24.8201 27.8152 24.7801L26.1452 24.0701C26.5752 23.9701 27.0152 23.8801 27.4452 23.7801C27.4052 23.5301 27.0852 22.3701 27.2752 22.2001C27.4652 22.0301 28.5952 22.5101 28.8352 22.5801C28.8852 22.5901 28.9352 22.6101 28.9752 22.6501C29.0152 22.6901 29.0352 22.7501 29.0552 22.8101C29.5852 24.7201 29.9852 26.6701 30.3752 28.6101C30.2852 26.7801 30.1652 24.9501 29.9852 23.1201C29.9452 22.7301 29.9052 22.3401 29.7452 21.9901C29.5852 21.6301 29.3052 21.3401 29.0452 21.0601C27.4052 19.3201 25.7552 17.5801 24.1052 15.8501C23.7652 15.4901 23.3652 15.1101 22.8752 15.1001C22.6752 15.1001 22.4852 15.1601 22.2952 15.2201C22.2952 15.2601 22.2952 15.2901 22.2952 15.3301C22.2852 16.0101 22.2652 16.6901 22.2552 17.3701C22.2552 17.4601 22.2552 17.5601 22.1952 17.6301C22.1252 17.7301 22.0052 17.7601 21.8952 17.7901L16.3852 19.1101C15.9252 19.2201 15.4552 19.3301 15.0052 19.4901C15.2052 19.5401 15.4052 19.6001 15.6152 19.6301C16.2452 19.7401 16.8752 19.7601 17.5152 19.7801C18.9152 19.8301 20.3152 19.8701 21.7152 19.9201C21.8852 19.9201 22.0652 19.9301 22.2152 20.0101C22.3952 20.1001 22.5052 20.2801 22.5952 20.4601C23.1552 21.5501 23.1852 22.8201 23.1552 24.0401C23.1252 25.1101 23.0352 26.1701 22.9152 27.2301C23.0152 27.2101 23.1152 27.1901 23.2152 27.1801C24.9152 27.0701 26.0652 29.3101 27.7752 29.2301C28.1352 29.2101 28.4952 29.0901 28.8552 29.1401C28.8552 29.1401 28.8452 29.1401 28.8352 29.1401H28.8452ZM30.3252 29.5501C30.3252 29.5501 30.4052 29.5401 30.4452 29.5201C30.4452 29.5201 30.3652 29.5401 30.3252 29.5501ZM20.7352 30.6401C20.5652 30.7701 20.3952 30.9101 20.1952 30.9801C20.0352 31.0301 19.8752 31.0401 19.7052 31.0501C18.8152 31.1001 17.9252 31.1401 17.0352 31.1901C16.8752 31.1901 16.6952 31.2001 16.5552 31.1201C16.3752 31.0201 16.2952 30.8001 16.2252 30.6001C15.4852 28.3101 14.7852 26.0101 14.0952 23.7101C13.8952 23.6401 13.6952 23.5601 13.4852 23.5101C13.1952 23.4401 12.9752 23.3601 12.7552 23.5301C12.5052 23.7201 12.3052 24.1701 12.1352 24.4301C11.7252 25.0301 11.3352 25.6401 10.9452 26.2601C10.5152 26.9601 10.0852 27.6701 9.68523 28.3801C10.2452 28.7301 10.7752 29.1401 11.1852 29.6601C11.2552 29.7501 11.3052 29.8501 11.3752 29.9501C11.0252 29.8201 10.6852 29.6201 10.3652 29.4301C9.93523 29.1801 9.47523 28.8701 9.38523 28.3801C9.30523 27.9301 9.58523 27.4801 9.55523 27.0201C9.48523 25.9601 7.92523 25.5301 7.78523 24.4701C7.72523 24.0001 7.96523 23.5401 7.96523 23.0601C7.96523 22.6001 7.73523 22.1801 7.51523 21.7901C6.22523 19.5001 4.93523 17.2101 3.64523 14.9201C3.53523 14.7301 3.42523 14.5301 3.41523 14.3101C3.41523 14.1201 3.48523 13.9301 3.56523 13.7501C3.81523 13.2201 4.16523 12.7501 4.59523 12.3601C4.32523 12.2601 4.05523 12.1701 3.77523 12.0801C3.38523 12.6301 2.99523 13.1801 2.60523 13.7301C2.51523 13.8601 2.42523 13.9801 2.38523 14.1301C2.33523 14.3201 2.38523 14.5201 2.42523 14.7101L4.17523 22.1801C4.29523 22.6701 4.40523 23.1701 4.43523 23.6701C4.47523 24.2401 4.40523 24.8101 4.22523 25.3501C4.19523 25.4501 4.15523 25.5501 4.17523 25.6501C4.19523 25.7501 4.25523 25.8401 4.32523 25.9301C5.33523 27.2101 6.48523 28.3701 7.66523 29.4901C8.97523 30.7301 10.4052 31.9601 12.1552 32.3601C12.2852 32.3901 12.4052 32.4101 12.5152 32.4901C12.6452 32.5801 12.7152 32.7201 12.7852 32.8601C12.9352 33.1701 13.0952 33.4701 13.2452 33.7801C13.2552 33.8101 13.2752 33.8301 13.2852 33.8601C13.2952 33.8601 13.3152 33.8601 13.3252 33.8601C13.5552 34.3401 13.7852 34.8101 14.0052 35.2901C14.1252 35.5401 14.2452 35.8001 14.4252 36.0201C14.7052 36.3501 15.1152 36.5701 15.5552 36.5701C15.8252 35.7101 16.4252 35.0001 17.0352 34.3301C17.9552 33.3201 18.9052 32.3601 19.9052 31.4301C20.1952 31.1601 20.4752 30.8901 20.7452 30.6001C20.7452 30.6001 20.7252 30.6101 20.7152 30.6201L20.7352 30.6401Z"/>
  <path fill="#C5C3C4" d="M2.84521 13.91C2.84521 14.25 2.97522 14.57 3.11522 14.87C4.14522 17.18 5.28521 19.45 6.53521 21.65C6.77521 22.08 7.03521 22.56 6.93521 23.04C6.85521 23.44 6.52522 23.8 6.58522 24.21C6.61522 24.44 6.76522 24.64 6.91522 24.82C7.51522 25.58 8.12521 26.35 8.72521 27.11C8.82521 27.23 8.92521 27.36 8.96521 27.51C9.01521 27.66 8.99522 27.82 8.98522 27.98C8.95522 28.31 8.92522 28.65 8.89522 28.98C8.89522 29.09 8.87521 29.2 8.92521 29.3C8.97521 29.41 9.08521 29.49 9.18521 29.55C10.0552 30.12 10.9252 30.7 11.8452 31.18C11.6752 30.77 11.5252 30.36 11.3852 29.94C11.0352 29.81 10.7052 29.61 10.3852 29.42C9.95521 29.17 9.49522 28.86 9.40522 28.37C9.32522 27.92 9.60522 27.47 9.57522 27.01C9.50522 25.95 7.94521 25.52 7.80521 24.46C7.74521 23.99 7.98522 23.53 7.98522 23.05C7.98522 22.59 7.75522 22.17 7.52522 21.78C6.23522 19.49 4.94521 17.2 3.65522 14.91C3.54522 14.72 3.43522 14.52 3.42522 14.3C3.42522 14.11 3.49521 13.92 3.57521 13.74C3.82521 13.22 4.17522 12.74 4.60522 12.35C4.25522 12.22 3.90521 12.1 3.54521 11.99C3.34521 12.38 3.17521 12.87 3.08521 13.08C2.97521 13.33 2.86522 13.6 2.85522 13.88M29.7552 29.48C29.7052 29.55 29.6352 29.61 29.5752 29.67C28.3652 30.81 27.1652 31.95 25.9552 33.09C25.8252 33.21 25.6952 33.33 25.5352 33.39C25.3652 33.46 25.1652 33.46 24.9752 33.43C24.5552 33.38 24.1452 33.25 23.7752 33.04C23.5252 32.9 23.2852 32.72 23.0252 32.6C22.3952 32.3 21.5752 32.28 21.1852 31.71C20.7952 32.39 20.0352 32.92 20.0152 33.71C20.0152 34.08 20.1652 34.52 19.9052 34.79C19.8152 34.88 19.7052 34.93 19.5852 34.97L16.2552 36.34C16.0552 36.42 15.8552 36.5 15.6352 36.49C15.6152 36.49 15.6152 36.49 15.5952 36.48C15.8752 35.67 16.4452 34.99 17.0252 34.35C17.9452 33.34 18.8952 32.38 19.8952 31.45C20.1852 31.18 20.4652 30.91 20.7352 30.62C21.1952 30.25 21.6652 29.88 22.1252 29.51C22.3052 29.37 22.4952 29.22 22.6052 29.01C22.7052 28.83 22.7452 28.61 22.7752 28.4C22.8352 28.01 22.8652 27.62 22.9052 27.23C23.0052 27.21 23.1052 27.19 23.2052 27.18C24.9052 27.07 26.0552 29.31 27.7652 29.23C28.1252 29.21 28.4952 29.09 28.8552 29.14C29.1552 29.19 29.4452 29.36 29.7352 29.47L29.7552 29.48ZM16.4852 31.03C16.3152 30.95 16.1652 30.77 16.0652 30.59C14.0952 27.15 12.1152 23.7 10.1452 20.26C9.72522 19.52 9.29521 18.77 8.97521 17.98C9.33521 18.55 9.75521 19.08 10.1752 19.6L12.0752 21.93C12.4152 21.47 12.7752 21.01 13.1852 20.6C14.1752 23.94 15.1652 27.28 16.2452 30.59C16.2952 30.75 16.3752 30.91 16.4952 31.03H16.4852ZM30.7252 14.91C30.7252 14.91 30.7752 14.91 30.7952 14.91C31.0252 14.91 31.2652 14.91 31.4852 14.97C31.7152 15.04 31.9052 15.18 32.0952 15.32L36.6052 18.55C36.8252 18.71 37.0452 18.87 37.2252 19.08C37.5052 19.43 37.6252 19.88 37.7152 20.32C37.6352 20.2 37.5352 20.08 37.4252 19.98C35.3652 18.08 33.0552 16.47 30.7352 14.91H30.7252Z"/>
</svg>